<svg xmlns="http://www.w3.org/2000/svg" xmlns:xlink="http://www.w3.org/1999/xlink" width="294.521" height="283.664" viewBox="0 0 294.521 283.664">
  <defs>
    <linearGradient id="linear-gradient" x1="-21.84" y1="5.404" x2="-20.683" y2="5.404" gradientUnits="objectBoundingBox">
      <stop offset="0" stop-color="#42e8e0"/>
      <stop offset="0.15" stop-color="#43e3e0"/>
      <stop offset="0.33" stop-color="#45d5df"/>
      <stop offset="0.52" stop-color="#49bddd"/>
      <stop offset="0.72" stop-color="#4e9cdb"/>
      <stop offset="0.93" stop-color="#5472d8"/>
      <stop offset="1" stop-color="#5761d7"/>
    </linearGradient>
    <linearGradient id="linear-gradient-2" x1="3.959" y1="23.63" x2="4.959" y2="23.63" xlink:href="#linear-gradient"/>
    <linearGradient id="linear-gradient-3" x1="3.014" y1="3.839" x2="3.014" y2="3.371" gradientUnits="objectBoundingBox">
      <stop offset="0" stop-color="#c0bff6"/>
      <stop offset="0.29" stop-color="#c5c4f7"/>
      <stop offset="0.64" stop-color="#d3d2f9"/>
      <stop offset="1" stop-color="#e9e9fd"/>
    </linearGradient>
    <linearGradient id="linear-gradient-4" x1="0.603" y1="0.5" x2="1.603" y2="0.5" xlink:href="#linear-gradient"/>
    <linearGradient id="linear-gradient-5" x1="0.125" y1="0.5" x2="1.126" y2="0.5" xlink:href="#linear-gradient-3"/>
    <linearGradient id="linear-gradient-6" x1="-4.092" y1="0.5" x2="-3.092" y2="0.5" gradientUnits="objectBoundingBox">
      <stop offset="0" stop-color="#5761d7"/>
      <stop offset="0.18" stop-color="#5c66d9"/>
      <stop offset="0.39" stop-color="#6a73df"/>
      <stop offset="0.61" stop-color="#8289e8"/>
      <stop offset="0.85" stop-color="#a3a7f5"/>
      <stop offset="1" stop-color="#bcbeff"/>
    </linearGradient>
    <linearGradient id="linear-gradient-7" x1="0.57" y1="0.5" x2="1.57" y2="0.5" xlink:href="#linear-gradient-6"/>
    <linearGradient id="linear-gradient-8" x1="0.906" y1="0.5" x2="1.906" y2="0.5" xlink:href="#linear-gradient-3"/>
    <linearGradient id="linear-gradient-9" x1="3.269" y1="0.5" x2="4.269" y2="0.5" xlink:href="#linear-gradient-3"/>
    <clipPath id="clip-path">
      <path id="SVGID" d="M206.35,7.67,309.679,67.327l-12.814,75.535L193.61,83.246Z" transform="translate(-193.61 -7.67)" fill="none"/>
    </clipPath>
    <linearGradient id="linear-gradient-10" x1="0.142" y1="0.5" x2="1.142" y2="0.5" xlink:href="#linear-gradient-3"/>
    <linearGradient id="linear-gradient-11" x1="-1.553" y1="0.501" x2="-0.553" y2="0.501" xlink:href="#linear-gradient-3"/>
    <linearGradient id="linear-gradient-12" x1="2.316" y1="0.5" x2="3.316" y2="0.5" xlink:href="#linear-gradient"/>
    <linearGradient id="linear-gradient-13" x1="1.764" y1="-1.778" x2="2.918" y2="-1.778" xlink:href="#linear-gradient-6"/>
    <radialGradient id="radial-gradient" cx="151.707" cy="174.168" fx="113.00733331241281" fy="160.5161228123702" r="43.841" gradientTransform="matrix(-0.936, 0, 0, 0.936, 127.437, 1.748)" gradientUnits="userSpaceOnUse">
      <stop offset="0" stop-color="#2b237c"/>
      <stop offset="1" stop-color="#180d5b"/>
    </radialGradient>
    <linearGradient id="linear-gradient-14" x1="2.418" y1="0.5" x2="3.418" y2="0.5" xlink:href="#linear-gradient-6"/>
    <linearGradient id="linear-gradient-15" x1="2.18" y1="-1.68" x2="3.334" y2="-1.68" xlink:href="#linear-gradient-3"/>
    <linearGradient id="linear-gradient-16" x1="2.84" y1="0.5" x2="3.84" y2="0.5" gradientUnits="objectBoundingBox">
      <stop offset="0" stop-color="#5761d7"/>
      <stop offset="0.07" stop-color="#5472d8"/>
      <stop offset="0.28" stop-color="#4e9cdb"/>
      <stop offset="0.48" stop-color="#49bddd"/>
      <stop offset="0.67" stop-color="#45d5df"/>
      <stop offset="0.85" stop-color="#43e3e0"/>
      <stop offset="1" stop-color="#42e8e0"/>
    </linearGradient>
    <linearGradient id="linear-gradient-17" x1="-1.119" y1="0.5" x2="-0.119" y2="0.5" xlink:href="#linear-gradient"/>
    <linearGradient id="linear-gradient-18" x1="0" y1="0.5" x2="1" y2="0.5" xlink:href="#linear-gradient"/>
    <linearGradient id="linear-gradient-19" x1="0.576" y1="0.889" x2="0.857" y2="0.111" xlink:href="#linear-gradient"/>
    <linearGradient id="linear-gradient-20" x1="30.413" y1="5.237" x2="31.447" y2="5.237" xlink:href="#linear-gradient-16"/>
    <linearGradient id="linear-gradient-21" x1="13.845" y1="3.013" x2="14.827" y2="3.013" xlink:href="#linear-gradient-16"/>
    <linearGradient id="linear-gradient-22" x1="8.26" y1="1.323" x2="9.219" y2="1.323" xlink:href="#linear-gradient-16"/>
    <linearGradient id="linear-gradient-23" x1="1.705" y1="0.762" x2="2.594" y2="0.122" xlink:href="#linear-gradient-6"/>
    <linearGradient id="linear-gradient-24" x1="3.32" y1="0.683" x2="3.648" y2="0.254" xlink:href="#linear-gradient-3"/>
    <linearGradient id="linear-gradient-26" x1="0" y1="0.5" x2="1" y2="0.5" xlink:href="#linear-gradient"/>
    <linearGradient id="linear-gradient-27" y1="0.5" x2="0.713" y2="0.5" gradientUnits="objectBoundingBox">
      <stop offset="0.25" stop-color="#5761d7"/>
      <stop offset="0.44" stop-color="#6c74df"/>
      <stop offset="0.82" stop-color="#a2a6f5"/>
      <stop offset="1" stop-color="#bcbeff"/>
    </linearGradient>
    <linearGradient id="linear-gradient-28" x1="0" y1="0.5" x2="1" y2="0.5" xlink:href="#linear-gradient-3"/>
    <linearGradient id="linear-gradient-29" x1="0" y1="0.5" x2="1" y2="0.5" xlink:href="#linear-gradient"/>
    <linearGradient id="linear-gradient-30" x1="0" y1="0.5" x2="1" y2="0.5" xlink:href="#linear-gradient"/>
  </defs>
  <g id="illustration" transform="translate(0 0.007)">
    <g id="Camada_2" data-name="Camada 2" transform="translate(0 -0.007)">
      <g id="Ñëîé_1" data-name="Ñëîé 1">
        <path id="Caminho_1" data-name="Caminho 1" d="M144.282,131a.823.823,0,0,1-.379-.1L109.018,110.76a.766.766,0,0,1,.758-1.326l34.893,20.144a.774.774,0,0,1,.28,1.046.766.766,0,0,1-.667.379Z" transform="translate(-19.179 -19.293)" fill="url(#linear-gradient)"/>
        <path id="Caminho_2" data-name="Caminho 2" d="M61.213,176.979a.824.824,0,0,1-.412-.115L.412,141.716a.814.814,0,0,1,.016-1.425l55.35-30.034A.83.83,0,0,1,56.6,111.7L2.471,141.032l59.138,34.416a.824.824,0,0,1-.42,1.532Z" transform="translate(0 -19.432)" fill="url(#linear-gradient-2)"/>
        <path id="Caminho_3" data-name="Caminho 3" d="M163.216,54.3,228.663,92.1c1.787,1.029,3.236-.066,3.236-2.471V52.954a7.771,7.771,0,0,0-3.236-6.193L163.216,8.977c-1.787-1.029-3.236.066-3.236,2.471V48.112A7.8,7.8,0,0,0,163.216,54.3Z" transform="translate(-28.231 -1.51)" fill="url(#linear-gradient-3)"/>
        <path id="Caminho_4" data-name="Caminho 4" d="M213.942,220.63,117.67,165.05a2.248,2.248,0,0,1,0-3.887l59.822-34.531.469-.272L278.8,184.576a2.24,2.24,0,0,1,0,3.879L223.066,220.63a9.15,9.15,0,0,1-9.125,0Zm-95.374-57.845a.379.379,0,0,0,0,.642l96.354,55.58a7.255,7.255,0,0,0,7.247,0L277.9,186.832a.371.371,0,0,0,0-.634L178,128.551Z" transform="translate(-20.567 -22.293)" fill="url(#linear-gradient-4)"/>
        <path id="Caminho_5" data-name="Caminho 5" d="M191,81.092,204.381,1.514,203.3,1.061,204.95.131h0a1.169,1.169,0,0,1,1.244.091l107.175,61.9a3.055,3.055,0,0,1,1.392,2.718l-13.522,80.212a1.013,1.013,0,0,1-.568.824h0l-1.589.914-.272-1.482h.091L192.358,83.785A3.014,3.014,0,0,1,191,81.092Z" transform="translate(-33.704 0.007)" fill="url(#linear-gradient-5)"/>
        <path id="Caminho_6" data-name="Caminho 6" d="M334.732,77.9l1.762-.782a2.47,2.47,0,0,1,.231,1.326L323.2,158.658a1.013,1.013,0,0,1-.568.824h0l-1.589.914-.272-1.482h.091L315.47,155.8Z" transform="translate(-55.67 -13.603)" fill="url(#linear-gradient-6)"/>
        <path id="Caminho_7" data-name="Caminho 7" d="M190.31,85.03l107.2,61.88c.824.486,1.532.206,1.647-.651l13.514-80.2a3.022,3.022,0,0,0-1.392-2.726L204.121,1.4c-.824-.478-1.532-.2-1.647.659l-13.555,80.2A3.039,3.039,0,0,0,190.31,85.03Z" transform="translate(-33.336 -0.201)" fill="#24126a"/>
        <g id="Grupo_2" data-name="Grupo 2" transform="translate(159.445 6.322)" opacity="0.51">
          <path id="Caminho_8" data-name="Caminho 8" d="M206.35,7.67,309.679,67.327l-12.814,75.535L193.61,83.246Z" transform="translate(-193.61 -7.67)" fill="#453c9e"/>
        </g>
        <path id="Caminho_9" data-name="Caminho 9" d="M108.79,142.375l5.855,3.055L173.3,111.559a4.266,4.266,0,0,1,3.829.156L278.3,170.128c.972-.544,5.386-2.66,5.386-2.66l-2.141,5.575h0a1.31,1.31,0,0,1-.6.667l-61.765,35.667a4.266,4.266,0,0,1-3.829-.156L111.8,149.441a1.861,1.861,0,0,1-.824-.922h0Z" transform="translate(-19.198 -19.614)" fill="url(#linear-gradient-7)"/>
        <path id="Caminho_10" data-name="Caminho 10" d="M109.684,141.819l106.1,61.263a4.381,4.381,0,0,0,3.92.165L283.03,166.69c1-.585.881-1.6-.28-2.265l-106.1-61.263a4.4,4.4,0,0,0-3.928-.165L109.4,139.554C108.4,140.139,108.523,141.152,109.684,141.819Z" transform="translate(-19.186 -18.102)" fill="url(#linear-gradient-8)"/>
        <path id="Caminho_11" data-name="Caminho 11" d="M109.686,149.272l106.1,61.263a4.348,4.348,0,0,0,3.92.156l63.322-36.557a1.26,1.26,0,0,0,.609-.684,1.062,1.062,0,0,1-.609,1.3L219.71,211.309a4.381,4.381,0,0,1-3.92-.165l-106.1-61.263c-.824-.445-1.079-1.054-.9-1.581A1.878,1.878,0,0,0,109.686,149.272Z" transform="translate(-19.188 -26.164)" fill="#fff"/>
        <path id="Caminho_12" data-name="Caminho 12" d="M276.642,208.242v-1.169c0-.107-.066-.156-.148-.107l-4.118,2.364a.379.379,0,0,0-.156.288v1.161c0,.115.074.165.156.115l4.118-2.364a.371.371,0,0,0,.148-.288Z" transform="translate(-48.037 -36.513)" fill="#2842a2"/>
        <path id="Caminho_13" data-name="Caminho 13" d="M269.194,212.542v-1.161c0-.115-.066-.165-.148-.115l-4.118,2.372a.337.337,0,0,0-.148.28v1.169c0,.107.066.156.148.107l4.118-2.364a.371.371,0,0,0,.148-.288Z" transform="translate(-46.724 -37.272)" fill="#2842a2"/>
        <path id="Caminho_14" data-name="Caminho 14" d="M274.231,165.3l-88.168-50.9a1.869,1.869,0,0,0-1.9,0l-31.393,18.167a.675.675,0,0,0,0,1.169l88.118,50.878a1.869,1.869,0,0,0,1.9,0l31.434-18.118a.675.675,0,0,0,.008-1.194Z" transform="translate(-26.899 -20.135)" fill="#adb1f2"/>
        <path id="Caminho_15" data-name="Caminho 15" d="M274.231,166.467l-.313.189-87.855-50.73a1.911,1.911,0,0,0-1.9,0l-31.08,17.986-.313-.181a.675.675,0,0,1,0-1.169l31.426-18.167a1.878,1.878,0,0,1,1.9,0l88.168,50.9a.675.675,0,0,1-.033,1.169Z" transform="translate(-26.899 -20.135)" fill="#9198db"/>
        <path id="Caminho_16" data-name="Caminho 16" d="M188.09,119.61l76.589,44.224,3.4-1.968L191.491,117.65Z" transform="translate(-33.191 -20.756)" fill="#24126a"/>
        <path id="Caminho_17" data-name="Caminho 17" d="M177.95,125.468l71.837,41.473,3.4-1.968L181.351,123.5Z" transform="translate(-31.402 -21.788)" fill="#24126a"/>
        <path id="Caminho_18" data-name="Caminho 18" d="M171.34,129.278l84.585,48.836,3.409-1.968L174.749,127.31Z" transform="translate(-30.236 -22.46)" fill="#24126a"/>
        <path id="Caminho_19" data-name="Caminho 19" d="M164.74,133.088l84.585,48.836,3.4-1.968L168.149,131.12Z" transform="translate(-29.071 -23.133)" fill="#24126a"/>
        <path id="Caminho_20" data-name="Caminho 20" d="M158.14,136.9l84.577,48.836,3.409-1.968L161.541,134.94Z" transform="translate(-27.906 -23.807)" fill="#24126a"/>
        <path id="Caminho_21" data-name="Caminho 21" d="M286.7,176.55l3.409,1.968,3.409-1.968-3.409-1.96Z" transform="translate(-50.593 -30.803)" fill="#24126a"/>
        <path id="Caminho_22" data-name="Caminho 22" d="M272.12,179.838l7.066,4.076,3.409-1.968-7.074-4.077Z" transform="translate(-48.02 -31.382)" fill="#24126a"/>
        <path id="Caminho_23" data-name="Caminho 23" d="M183.908,185.765l-23.775-13.728a1.029,1.029,0,0,1,0-1.944l16.24-9.38a3.665,3.665,0,0,1,3.36,0l23.817,13.72a1.029,1.029,0,0,1,0,1.944l-16.257,9.388A3.714,3.714,0,0,1,183.908,185.765Z" transform="translate(-28.136 -28.283)" fill="url(#linear-gradient-9)"/>
        <path id="Caminho_24" data-name="Caminho 24" d="M203.549,175.232l-23.8-13.728a3.714,3.714,0,0,0-3.36,0l-16.257,9.388a1.441,1.441,0,0,0-.585.568c-.247-.469-.058-1,.585-1.367l16.24-9.38a3.665,3.665,0,0,1,3.36,0l23.817,13.72c.642.371.824.9.585,1.367a1.441,1.441,0,0,0-.585-.568Z" transform="translate(-28.136 -28.283)" fill="#9198db"/>
        <g id="Grupo_4" data-name="Grupo 4" transform="translate(159.445 6.322)" opacity="0.11">
          <g id="Grupo_3" data-name="Grupo 3" clip-path="url(#clip-path)">
            <path id="Caminho_25" data-name="Caminho 25" d="M190.864,94.727l106.1,61.254a4.323,4.323,0,0,0,3.92.165L364.21,119.59c1-.576.873-1.589-.288-2.265l-106.1-61.255a4.34,4.34,0,0,0-3.928-.165L190.584,92.463C189.58,93.039,189.7,94.052,190.864,94.727Z" transform="translate(-192.956 -16.113)" fill="url(#linear-gradient-10)"/>
            <path id="Caminho_26" data-name="Caminho 26" d="M315.048,111l-23.775-13.72a1.029,1.029,0,0,1,0-1.944l16.256-9.421a3.731,3.731,0,0,1,3.368,0l23.775,13.728a1.029,1.029,0,0,1,0,1.944l-16.257,9.38a3.681,3.681,0,0,1-3.368.033Z" transform="translate(-210.722 -21.406)" fill="url(#linear-gradient-11)"/>
            <path id="Caminho_27" data-name="Caminho 27" d="M334.673,100.466,310.9,86.737a3.681,3.681,0,0,0-3.368,0l-16.257,9.388a1.565,1.565,0,0,0-.585.576c-.239-.469-.058-1,.585-1.367l16.257-9.421a3.731,3.731,0,0,1,3.368,0l23.775,13.728c.642.371.824.9.585,1.367a1.458,1.458,0,0,0-.585-.544Z" transform="translate(-210.723 -21.406)" fill="#9198db"/>
            <path id="Caminho_28" data-name="Caminho 28" d="M330.709,131.548l-88.176-50.9a1.894,1.894,0,0,0-1.894,0l-31.4,18.167a.675.675,0,0,0,0,1.169l88.118,50.886a1.894,1.894,0,0,0,1.894,0l31.443-18.118a.684.684,0,0,0,.017-1.2Z" transform="translate(-196.308 -20.503)" fill="#adb1f2"/>
            <path id="Caminho_29" data-name="Caminho 29" d="M330.709,132.726l-.313.181-87.863-50.73a1.878,1.878,0,0,0-1.894,0l-31.08,17.986-.321-.181a.675.675,0,0,1,0-1.169l31.4-18.167a1.894,1.894,0,0,1,1.894,0l88.176,50.9a.684.684,0,0,1,0,1.178Z" transform="translate(-196.308 -20.503)" fill="#9198db"/>
            <path id="Caminho_30" data-name="Caminho 30" d="M218.637,101.25,295.448,145.6l-3.039,1.762L215.59,103.012Z" transform="translate(-197.489 -24.184)" fill="#24126a"/>
            <path id="Caminho_31" data-name="Caminho 31" d="M228.467,95.58l73.006,42.148-3.039,1.762L225.42,97.334Z" transform="translate(-199.223 -23.183)" fill="#24126a"/>
            <path id="Caminho_32" data-name="Caminho 32" d="M323.739,150.59l6.819,3.936-3.039,1.754-6.819-3.936Z" transform="translate(-216.037 -32.89)" fill="#24126a"/>
            <path id="Caminho_33" data-name="Caminho 33" d="M316.427,157.71l4.744,2.742-3.039,1.754-4.752-2.742Z" transform="translate(-214.745 -34.147)" fill="#24126a"/>
            <path id="Caminho_34" data-name="Caminho 34" d="M234.627,92.02,319.9,141.259l-3.047,1.754L231.58,93.782Z" transform="translate(-200.31 -22.555)" fill="#24126a"/>
            <path id="Caminho_35" data-name="Caminho 35" d="M240.779,88.47,326.064,137.7l-3.047,1.762L237.74,90.224Z" transform="translate(-201.397 -21.928)" fill="#24126a"/>
            <path id="Caminho_36" data-name="Caminho 36" d="M246.939,84.91l85.277,49.239-3.039,1.754L243.9,86.672Z" transform="translate(-202.484 -21.3)" fill="#24126a"/>
          </g>
        </g>
        <path id="Caminho_37" data-name="Caminho 37" d="M322.95,85.207l2.042,1.309L325.231,85,323.2,83.7Z" transform="translate(-56.989 -14.765)" fill="#42e8e0"/>
        <path id="Caminho_38" data-name="Caminho 38" d="M320.92,96.055l2.042,1.309,1.441-8.853-2.034-1.3Z" transform="translate(-56.631 -15.384)" fill="#42e8e0"/>
        <path id="Caminho_39" data-name="Caminho 39" d="M319.95,103.138l2.042,1.309.568-3.516-2.034-1.3Z" transform="translate(-56.46 -17.576)" fill="#42e8e0"/>
        <path id="Caminho_40" data-name="Caminho 40" d="M318.95,109.3l2.034,1.3.576-3.508-2.042-1.309Z" transform="translate(-56.284 -18.661)" fill="#42e8e0"/>
        <path id="Caminho_41" data-name="Caminho 41" d="M318.29,88.358l2.034,1.309.576-3.516-2.034-1.3Z" transform="translate(-56.167 -14.967)" fill="#42e8e0"/>
        <path id="Caminho_42" data-name="Caminho 42" d="M316.96,96.164l2.034,1.3.848-5.155L317.8,91Z" transform="translate(-55.932 -16.053)" fill="#42e8e0"/>
        <path id="Caminho_43" data-name="Caminho 43" d="M315.73,103.831l2.042,1.3.717-4.431-2.034-1.3Z" transform="translate(-55.715 -17.535)" fill="#42e8e0"/>
        <path id="Caminho_44" data-name="Caminho 44" d="M317.94,115.456l2.042,1.3.568-3.516-2.034-1.3Z" transform="translate(-56.105 -19.748)" fill="#42e8e0"/>
        <path id="Caminho_45" data-name="Caminho 45" d="M319.26,82.847l2.042,1.309.247-1.515-2.042-1.3Z" transform="translate(-56.338 -14.348)" fill="#42e8e0"/>
        <path id="Caminho_46" data-name="Caminho 46" d="M315.12,120.686l3.558,2.273.239-1.466-3.558-2.273Z" transform="translate(-55.608 -21.033)" fill="#42e8e0"/>
        <path id="Caminho_47" data-name="Caminho 47" d="M144.457,245.225h0L61.6,197.394a1.878,1.878,0,0,1-1.021-1.647,2.24,2.24,0,0,1,1.276-1.869l17.187-9.9a4.785,4.785,0,0,1,4.4-.148l82.9,47.823a1.886,1.886,0,0,1,1.029,1.647,2.265,2.265,0,0,1-1.285,1.869l-17.228,9.907a5,5,0,0,1-2.471.618A3.953,3.953,0,0,1,144.457,245.225Zm-64.59-59.846-17.2,9.94c-.4.231-.478.428-.478.469s.049.107.214.206l82.856,47.831h0a3.212,3.212,0,0,0,2.784-.148l17.22-9.94c.387-.231.469-.428.469-.469s-.049-.107-.214-.206L82.667,185.231a2.306,2.306,0,0,0-1.145-.255,3.368,3.368,0,0,0-1.655.4Z" transform="translate(-10.69 -32.352)" fill="url(#linear-gradient-12)"/>
        <path id="Caminho_48" data-name="Caminho 48" d="M99.75,149.843a24.78,24.78,0,0,1,6.069,5.122c2.545-8.178,10.311-10.706,19.493-5.411,7.609,4.389,14.2,13.053,17.722,22.161a8.186,8.186,0,0,1,3.821,1.211c4.941,2.858,8.977,9.825,8.977,15.548v.354a10.937,10.937,0,0,1,4.628,1.548c6.341,3.665,11.48,12.567,11.48,19.888s-5.139,10.286-11.48,6.588L99.767,181.812c-7.675-4.381-13.877-15.087-13.877-23.965S92.091,145.429,99.75,149.843Z" transform="translate(-15.157 -25.895)" fill="url(#linear-gradient-13)"/>
        <path id="Caminho_49" data-name="Caminho 49" d="M99.75,149.841a22.433,22.433,0,0,1,3.64,2.676l6.794-3.928h0c3.731-2.627,9.133-2.512,15.137.955,7.6,4.4,14.19,13.061,17.714,22.17a8.186,8.186,0,0,1,3.821,1.211c4.941,2.858,8.977,9.825,8.977,15.548v.354a10.937,10.937,0,0,1,4.628,1.548c6.341,3.665,11.48,12.567,11.48,19.888,0,3.632-1.268,6.185-3.294,7.412h-.058l-16.627,9.652L148.33,209.86l-48.547-28c-7.692-4.431-13.893-15.137-13.893-24.014S92.091,145.426,99.75,149.841Z" transform="translate(-15.157 -25.893)" fill="url(#radial-gradient)"/>
        <path id="Caminho_50" data-name="Caminho 50" d="M70.27,158.7l16.85-9.784h0c2.52-1.5,6.012-1.309,9.882.922a22.432,22.432,0,0,1,3.64,2.676l6.794-3.928h0c3.731-2.627,9.133-2.512,15.137.955,7.593,4.4,14.181,13.061,17.706,22.17a8.186,8.186,0,0,1,3.821,1.211c4.941,2.858,8.977,9.825,8.977,15.548v.354a10.937,10.937,0,0,1,4.628,1.548c6.341,3.665,11.48,12.567,11.48,19.888,0,3.632-1.268,6.185-3.294,7.412h-.058l-16.627,9.652-3.632-17.467-48.547-28c-6.242-3.607-11.488-11.332-13.259-18.842Z" transform="translate(-12.4 -25.893)" fill="url(#linear-gradient-14)"/>
        <path id="Caminho_51" data-name="Caminho 51" d="M79.5,161.6a24.558,24.558,0,0,1,6.069,5.114c2.545-8.169,10.311-10.706,19.493-5.4,7.593,4.381,14.214,13.012,17.722,22.153a8.284,8.284,0,0,1,3.821,1.211c4.941,2.866,8.977,9.825,8.977,15.548v.362a10.706,10.706,0,0,1,4.62,1.54c6.349,3.665,11.529,12.567,11.529,19.888s-5.139,10.294-11.529,6.588l-60.7-35c-7.659-4.414-13.86-15.161-13.86-24.006S71.841,157.18,79.5,161.6Z" transform="translate(-11.583 -27.97)" fill="url(#linear-gradient-15)"/>
        <path id="Caminho_52" data-name="Caminho 52" d="M85.8,167.305a24.484,24.484,0,0,0-6.069-5.122c-3.739-2.158-7.132-2.4-9.627-1.062,2.528-1.7,6.152-1.6,10.187.733a24.162,24.162,0,0,1,5.765,4.76A6.965,6.965,0,0,0,85.8,167.305Z" transform="translate(-12.37 -28.221)" fill="#fff"/>
        <path id="Caminho_53" data-name="Caminho 53" d="M156.382,222.324c0-7.321-5.139-16.232-11.48-19.888a10.9,10.9,0,0,0-4.62-1.548v-.354c0-5.724-4.019-12.691-8.977-15.548a8.235,8.235,0,0,0-3.829-1.211c-3.5-9.141-10.121-17.772-17.722-22.161-5.551-3.2-10.582-3.541-14.264-1.5,3.722-2.4,8.985-2.207,14.824,1.169,7.593,4.381,14.214,13.012,17.722,22.153a8.285,8.285,0,0,1,3.821,1.211c4.941,2.866,8.977,9.825,8.977,15.548v.362a10.8,10.8,0,0,1,4.628,1.54c6.341,3.665,11.48,12.567,11.48,19.888,0,3.764-1.359,6.374-3.541,7.527C155.254,228.253,156.382,225.775,156.382,222.324Z" transform="translate(-16.851 -27.964)" fill="#fff"/>
        <path id="Caminho_54" data-name="Caminho 54" d="M217.706,276.573l1.474-1-41.5-24.986-.832,1.392Z" transform="translate(-31.208 -44.215)" fill="url(#linear-gradient-16)"/>
        <path id="Caminho_55" data-name="Caminho 55" d="M296.1,269.3a.824.824,0,0,1-.4-1.54l35.33-19.172L279.848,218.8a.824.824,0,0,1,.824-1.425l52.451,30.52a.825.825,0,0,1-.025,1.433L296.484,269.2A.824.824,0,0,1,296.1,269.3Z" transform="translate(-49.316 -38.338)" fill="url(#linear-gradient-17)"/>
        <path id="Caminho_56" data-name="Caminho 56" d="M252.107,329.263a.823.823,0,0,1-.4-.115L191.832,294.56a.824.824,0,0,1,0-1.425L251.7,258.546a.823.823,0,0,1,.824,0l59.863,34.588a.824.824,0,0,1,0,1.425l-59.863,34.588A.824.824,0,0,1,252.107,329.263Zm-58.216-35.412,58.216,33.617,58.224-33.617-58.216-33.608Z" transform="translate(-33.779 -45.599)" fill="url(#linear-gradient-18)"/>
        <path id="Caminho_57" data-name="Caminho 57" d="M256.594,319.506l39.752-22.952L256.6,273.61,216.85,296.554Z" transform="translate(-38.266 -48.277)" fill="url(#linear-gradient-19)"/>
        <path id="Caminho_58" data-name="Caminho 58" d="M250.534,285.8s-.684.675-1.392,1.474a18.462,18.462,0,0,1-3.5,2.372c-.824.486-4.628,3.22-5.476,5.979s1.812,3.2,4.546,2.784,5.345-2.866,6.111-3.755a25.53,25.53,0,0,1,6.786-4.538c3.385-1.647,1.425-4.027,1.425-4.027Z" transform="translate(-42.353 -50.428)" fill="#160a5b"/>
        <path id="Caminho_59" data-name="Caminho 59" d="M280.97,296.59a10.294,10.294,0,0,1,.634,2.874c.115,1.647.255,5.106.313,6.135a8.605,8.605,0,0,1-1.828,5.864c-1.853,2.347-2.808,3.294-5.172,2.273s-2.207-5.007-1.738-7.058a57.926,57.926,0,0,0,.955-7.14,1.416,1.416,0,0,1,.156-.824Z" transform="translate(-48.157 -52.332)" fill="#160a5b"/>
        <path id="Caminho_60" data-name="Caminho 60" d="M244.21,226.519s.049,18.39,4.118,28.255a71.21,71.21,0,0,1,3.006,18.9,3.632,3.632,0,0,0,.214,3.2c.972,1.458,7.222,2.924,8.375-1.754s.98-13.473-.074-17.171.749-13.761.749-13.761,1.7,1.136,3.764,8.458a94.7,94.7,0,0,0,4.381,12.147c.725,2.026,1.128,14.354.494,20.35,0,0,5.073.824,6.588-1.548s2.339-14.98,2.067-19-1.647-16.932-1.309-20.9,1.244-7.189.428-11.184S249.547,219,249.547,219Z" transform="translate(-43.095 -38.64)" fill="#24126a"/>
        <path id="Caminho_61" data-name="Caminho 61" d="M276.588,244.88c.329-3.978,1.244-7.189.428-11.184-.3-1.507-4.258-3.788-9.059-6.045-8.235-.955-18.612-2.084-19.328-1.993a26.526,26.526,0,0,0-3.8,1.219l-.593.824s0,1.12.066,2.948c1.911.618,5.608.124,5.608.124a19.94,19.94,0,0,0,7.519,8.038c3.937,2.075,15.647,1.647,16.265,2.471s.527,10.83.428,12.106.865,9.364,1.771,16.512-.939,15.507-1,15.779a2.8,2.8,0,0,0,.964-.9c1.532-2.4,2.339-14.98,2.067-19S276.259,248.833,276.588,244.88Z" transform="translate(-43.1 -39.814)" fill="#160a5b"/>
        <path id="Caminho_62" data-name="Caminho 62" d="M253.556,154.967s-6,1.211-8.013,1.647a1.021,1.021,0,0,0-.741.618,24.294,24.294,0,0,0-1.252,12.641,63.339,63.339,0,0,1,.576,13.7l-3.113,14.28s-3.8,13.588-3.517,14,7.824,6.415,10.245,5.658,1.647-2.149,1.647-2.149,1.7,9.957,10.311,10.08,15.647.321,17.2-3.129.049-18.118-1.326-23.948-4.719-17.517-4.719-17.517L283.812,167.2l-10.574-8.5s-2.471-4.842-3.5-5.477-1.606-.14-1.606-.14Z" transform="translate(-41.907 -26.976)" fill="#453c9e"/>
        <path id="Caminho_63" data-name="Caminho 63" d="M247.977,226.971c0,.494-.313,1.227-1.878,1.721s-5.715-2.059-8.359-4c1.318,1.153,7.791,6.127,10.006,5.435a3.888,3.888,0,0,0,1.1-.519,17.4,17.4,0,0,1-.865-2.635Z" transform="translate(-41.953 -39.644)" fill="url(#linear-gradient-20)"/>
        <path id="Caminho_64" data-name="Caminho 64" d="M280.186,234.605c-1.647,3.632-9.059,3.426-18.118,3.294a9.726,9.726,0,0,1-5.608-1.762,9.224,9.224,0,0,0,6.588,2.759c8.614.115,15.647.321,17.2-3.129.5-1.128.684-3.475.651-6.317a15.285,15.285,0,0,1-.708,5.155Z" transform="translate(-45.256 -40.484)" fill="url(#linear-gradient-21)"/>
        <path id="Caminho_65" data-name="Caminho 65" d="M273.323,153.09s2.133,2.718-1.12,6.234a85.651,85.651,0,0,0-8.458,11.777c-1.869,3.047-3.558,4.661-4.554,7.3,0,0-.058-3.162-.058-8.046a103.805,103.805,0,0,1,.288-10.591C259.908,157.257,270.918,151.821,273.323,153.09Z" transform="translate(-45.723 -26.976)" fill="#f0f6ff"/>
        <path id="Caminho_66" data-name="Caminho 66" d="M264.078,156.268s-1.145.675-1.532.609-1.606-1.309-1.606-1.309-3.121-.14-3.434-1.482a27.423,27.423,0,0,0-.824-3.409c-.3-.7-1.565-4.076-1.54-5.435s.132-3.772-.42-5.073-1.021-14.14,11.357-13.473,8.235,13.44,8.235,13.44.889.4.3,2.051-.716,1.8-1.013,2.619a3.706,3.706,0,0,1-1.26,1.993l-.239,1.515a6.135,6.135,0,0,1-1.071,4.571C269.448,155.107,264.078,156.268,264.078,156.268Z" transform="translate(-44.911 -22.347)" fill="#fcd1c5"/>
        <path id="Caminho_67" data-name="Caminho 67" d="M243.865,157.56s-1.326.165-5.88,10.838c-2.537,5.954-6.382,12.1-7.28,16.545s-.576,9.24.3,9.6l20.868,8.425a.445.445,0,0,0,.609-.329L254,195.228l-9.462-3.928a13.588,13.588,0,0,0-3.451-3.146s2-3.484,1.9-4.447.445-10.937-.576-15.021S243.865,157.56,243.865,157.56Z" transform="translate(-40.617 -27.798)" fill="#24126a"/>
        <path id="Caminho_68" data-name="Caminho 68" d="M251.06,191.89a18.653,18.653,0,0,0-1.647-1.054c-.321-.132-2.067-.824-2.4-.939a6.647,6.647,0,0,0-1.787,0,.552.552,0,0,0-.445.28c-.428.741-1.647,2.907-1.507,3.747,0,0,3.129,2.092,3.467,3l.5.124S249.52,192.508,251.06,191.89Z" transform="translate(-42.928 -33.494)" fill="#fcd1c5"/>
        <path id="Caminho_69" data-name="Caminho 69" d="M279.249,206.941c-.329-1.4-.774-3.146-1.26-4.941l-19.559,7.815a20.415,20.415,0,0,0,15.779,7.058,13.358,13.358,0,0,0,6.341-1.828,77.338,77.338,0,0,0-1.3-8.1Z" transform="translate(-45.604 -35.64)" fill="#24126a"/>
        <path id="Caminho_70" data-name="Caminho 70" d="M285.255,170.26s-5.122.576-9.4,7.008a98.058,98.058,0,0,0-7.478,13.926l-.165.824a3.442,3.442,0,0,1-4.859,2.471c-4.307-2.051-10.706-5.155-11.867-6.061a11.1,11.1,0,0,0-5.081,7.041c-.939,3.994-.725,4.011-.725,4.011s16.981,8.449,23.619,8.54,15.6-21.519,16.635-26.007S288.145,171.611,285.255,170.26Z" transform="translate(-43.349 -30.039)" fill="#24126a"/>
        <path id="Caminho_71" data-name="Caminho 71" d="M285.255,170.26s-5.122.576-9.4,7.008a98.058,98.058,0,0,0-7.478,13.926l-.165.824a3.442,3.442,0,0,1-4.859,2.471c-4.307-2.051-10.706-5.155-11.867-6.061a11.1,11.1,0,0,0-5.081,7.041c-.939,3.994-.725,4.011-.725,4.011s16.981,8.449,23.619,8.54,15.6-21.519,16.635-26.007S288.145,171.611,285.255,170.26Z" transform="translate(-43.349 -30.039)" fill="#4846a5"/>
        <path id="Caminho_72" data-name="Caminho 72" d="M270.1,200.045s2.117,2.075,3.088.988.7-1.211.7-1.211,1.952,0,2.215-1.186,1.211-.552,1.3-1.911-1.548-1.12-1.548-1.12Z" transform="translate(-47.663 -34.509)" fill="#453c9e"/>
        <path id="Caminho_73" data-name="Caminho 73" d="M267,198.132s.609-.535,1.4-1.169,2.092-3.294,2.306-3.525,2.858-2.158,4.118-2.158.288,1.367,0,1.556-1.532.774-1.532.774-1.285,1.021-1.425,1.169,3.492-.165,4.06.206a.988.988,0,0,1,0,1.54,1.433,1.433,0,0,1-.725.222,1.26,1.26,0,0,1-.725,1.581c-1.1.486-1.342.2-1.342.2a1.532,1.532,0,0,1-1.935,1.466Z" transform="translate(-47.116 -33.749)" fill="#fcd1c5"/>
        <path id="Caminho_74" data-name="Caminho 74" d="M254.585,133.22s-1.746,5.106,2.545,3.747,8.235-3.714,9.52-2.742c1,.733.9,2.907.824,3.9a1.5,1.5,0,0,0,.239.972l1.211,1.861a1.441,1.441,0,0,1,.231.708l.058,1.276a.642.642,0,0,0,.585.609h.288a.651.651,0,0,0,.684-.511l.371-1.869s1.071-2.471,3.162-1.449c0,0,1.458-1.869,1.1-5.946s-2.092-8.359-10.055-9.232S254.585,133.22,254.585,133.22Z" transform="translate(-44.863 -21.963)" fill="#aa8383"/>
        <path id="Caminho_75" data-name="Caminho 75" d="M267.815,167.816l-1.169-.972a6.4,6.4,0,0,0-1.581,1.853c-.453.964-.1,4.068-.1,4.068l-.379.618-.428-.824-.288-3.665s.469-2.693.511-2.767a22.71,22.71,0,0,1,2.3.3,4.653,4.653,0,0,1,1.137,1.384Z" transform="translate(-46.564 -29.309)" fill="#c4ccd6"/>
        <path id="Caminho_76" data-name="Caminho 76" d="M261.4,163.59a4.118,4.118,0,0,0-1.869.511l1.557.132C261.292,164.265,261.4,163.59,261.4,163.59Z" transform="translate(-45.798 -28.862)" fill="#c4ccd6"/>
        <path id="Caminho_77" data-name="Caminho 77" d="M264.077,163.929l2.092,2.059a4.859,4.859,0,0,0-2.471,2.471s-2.339.371-2.528-.478.082-2.965-.173-3.92S264.077,163.929,264.077,163.929Z" transform="translate(-46.054 -28.864)" fill="#24126a"/>
        <path id="Caminho_78" data-name="Caminho 78" d="M260.879,168.9a11.825,11.825,0,0,1-.889,2.471c-.453.708-.922,1.515-.922,1.515l-.2,10.278s3.969-7.7,4.834-9.257c0,0,0-3.755-.379-4.472S260.879,168.9,260.879,168.9Z" transform="translate(-45.682 -29.795)" fill="#24126a"/>
        <path id="Caminho_79" data-name="Caminho 79" d="M272.021,150.76a15.688,15.688,0,0,1-9.7,9.059s1.219,1.244,1.606,1.309,1.532-.609,1.532-.609,5.369-1.161,6.959-3.385a6.135,6.135,0,0,0,1.071-4.571l.239-1.515a1.7,1.7,0,0,1-1.7-.288Z" transform="translate(-46.29 -26.598)" fill="#e2b1a6"/>
        <path id="Caminho_80" data-name="Caminho 80" d="M277.041,161.12s-1.062,3.352-1.194,3.475a15.161,15.161,0,0,1-2.471-.206l1.079,2.182s-12.073,12.353-14.675,19.04a143.61,143.61,0,0,1,15.828-18.48L274.282,165l2.388.527Z" transform="translate(-45.842 -28.427)" fill="#24126a"/>
        <path id="Caminho_81" data-name="Caminho 81" d="M256.7,156.91l-.642.692.716.708-2.224,1.911s-1,13.778,1.416,22.985c0,0-3.393-8.474-2.207-23.38l2.4-1.54-.749-.774Z" transform="translate(-44.735 -27.684)" fill="#24126a"/>
        <path id="Caminho_82" data-name="Caminho 82" d="M263.307,248.888l.082.066-2.965-3.294c1.351,2.018-.494,11.06-.708,13.127s1.466,6.415,2.009,11.464-1,12.18-1,12.2a3.83,3.83,0,0,0,1.911-2.6c1.161-4.669.98-13.473-.074-17.171S263.307,248.888,263.307,248.888Z" transform="translate(-45.828 -43.345)" fill="#160a5b"/>
        <path id="Caminho_83" data-name="Caminho 83" d="M269.312,210.036c6.638.091,15.6-21.519,16.635-26.007.173-.749.354-1.54.511-2.339,0,.066-1.861,4.735-3.624,8.87s-10.953,16.693-15.466,17.41c-4.118.651-18.637-6.588-21.412-8-.3,1.524-.181,1.54-.181,1.54S262.674,209.945,269.312,210.036Z" transform="translate(-43.367 -32.056)" fill="url(#linear-gradient-22)"/>
        <path id="Caminho_84" data-name="Caminho 84" d="M272.932,145.642a.651.651,0,0,0,.684-.511l.371-1.869s1.071-2.471,3.162-1.449c0,0,1.375-1.779,1.112-5.633-2.471,3.475-7.7,4.941-7.7,4.941l1.211,1.861a1.441,1.441,0,0,1,.231.708l.058,1.276a.642.642,0,0,0,.585.609Z" transform="translate(-47.744 -24.025)" fill="#936d6d"/>
        <path id="Caminho_85" data-name="Caminho 85" d="M203.1,34.32l38.459,22.235a7.755,7.755,0,0,1,3.236,6.185V99.42c0,2.388-1.449,3.484-3.236,2.471L196.13,75.62Z" transform="translate(-34.61 -6.051)" fill="#24126a"/>
        <path id="Caminho_86" data-name="Caminho 86" d="M161.22,8.571,163.1,7.228h0a2,2,0,0,1,2.3.058L230.833,45.07a7.762,7.762,0,0,1,3.245,6.185v36.68A2.948,2.948,0,0,1,233.04,90.5h0L231.1,91.888l-.107-1.425-.165-.074L165.4,52.605a7.755,7.755,0,0,1-3.245-6.193V9.732a4.884,4.884,0,0,1,.1-.964Z" transform="translate(-28.45 -1.211)" fill="url(#linear-gradient-23)"/>
        <path id="Caminho_87" data-name="Caminho 87" d="M244.842,58.169l-17.294,9.973L223.2,65.671,242.8,54.29a8.326,8.326,0,0,1,2.042,3.879Z" transform="translate(-39.387 -9.575)" fill="url(#linear-gradient-24)"/>
        <path id="Caminho_88" data-name="Caminho 88" d="M163.216,54.3,228.663,92.1c1.787,1.029,3.236-.066,3.236-2.471V52.954a7.771,7.771,0,0,0-3.236-6.193L163.216,8.977c-1.787-1.029-3.236.066-3.236,2.471V48.112A7.8,7.8,0,0,0,163.216,54.3Z" transform="translate(-28.231 -1.51)" fill="url(#linear-gradient-3)"/>
        <path id="Caminho_89" data-name="Caminho 89" d="M231.759,89.833V53.144a7.755,7.755,0,0,0-3.236-6.185L163.076,9.176a2.215,2.215,0,0,0-1.886-.239,2.026,2.026,0,0,1,2.24.091l65.446,37.784A7.771,7.771,0,0,1,232.113,53V89.643c0,1.441-.535,2.413-1.351,2.726A2.989,2.989,0,0,0,231.759,89.833Z" transform="translate(-28.444 -1.52)" fill="#fff"/>
        <path id="Caminho_90" data-name="Caminho 90" d="M171.078,33.8l53.406,30.808c.412.239.766.371,1,0V56.318a2.059,2.059,0,0,0-.824-1.647l-53.81-31.064c-.041,0-.082-.066-.124-.058-.4.066-.42.436-.42,1.013l-.132,7.766a1.853,1.853,0,0,0,.9,1.474Z" transform="translate(-30.031 -4.15)" fill="#5761d7"/>
        <path id="Caminho_91" data-name="Caminho 91" d="M170.967,55.231,224.5,86.072c.412.239.947.486,1.021,0a1.02,1.02,0,0,0,0-.222V77.762a2.042,2.042,0,0,0-.824-1.647L170.86,45.052l-.124-.058c-.42-.156-.527.371-.527.947v7.675a1.985,1.985,0,0,0,.758,1.614Z" transform="translate(-30.036 -7.929)" fill="#5761d7"/>
        <path id="Caminho_92" data-name="Caminho 92" d="M170.666,23.541a2.009,2.009,0,0,0,0,.222v8.1a2.059,2.059,0,0,0,.824,1.647l53.826,31.08.124.058c-.074.469-.42.659-.824.42L170.822,33.983A2.034,2.034,0,0,1,170,32.336V24.249C169.941,23.673,170.254,23.384,170.666,23.541Z" transform="translate(-29.998 -4.141)" fill="#fff"/>
        <path id="Caminho_93" data-name="Caminho 93" d="M170.666,44.991a1.75,1.75,0,0,0,0,.222v8.1a2.059,2.059,0,0,0,.824,1.647l53.826,31.08a.387.387,0,0,0,.124.049c-.074.478-.42.667-.824.428L170.822,55.433A2.051,2.051,0,0,1,170,53.786v-8.1C169.941,45.123,170.254,44.834,170.666,44.991Z" transform="translate(-29.998 -7.926)" fill="#fff"/>
        <path id="Caminho_94" data-name="Caminho 94" d="M218.17,57.878l-.659,1.244-1.252-1.573.955-.98-1.425-1.449.461-1.2,1.285,1.581-.173-1.878,1.581.906-.165,1.647,1.285-.082.478,1.729-1.408-.181.947,2.125-1.227.132Z" transform="translate(-38.079 -9.456)" fill="#fff"/>
        <path id="Caminho_95" data-name="Caminho 95" d="M210.658,53.538,210,54.789l-1.252-1.573.947-.98-1.425-1.449.461-1.2,1.285,1.573-.173-1.878,1.573.906-.165,1.647,1.285-.082.478,1.738-1.4-.189.939,2.092-1.211.165Z" transform="translate(-36.752 -8.691)" fill="#fff"/>
        <path id="Caminho_96" data-name="Caminho 96" d="M203.148,49.206l-.659,1.244-1.252-1.573.947-.98-1.425-1.449.469-1.2,1.285,1.573-.173-1.878,1.573.906-.165,1.647,1.326-.033.478,1.729-1.4-.181.922,2.075-1.235.132Z" transform="translate(-35.427 -7.925)" fill="#fff"/>
        <path id="Caminho_97" data-name="Caminho 97" d="M195.642,44.866l-.659,1.244-1.252-1.573.964-.98-1.425-1.449.469-1.2,1.285,1.581-.173-1.886,1.573.914-.165,1.647,1.285-.074.478,1.729-1.408-.181.947,2.084-1.235.132Z" transform="translate(-34.105 -7.159)" fill="#fff"/>
        <path id="Caminho_98" data-name="Caminho 98" d="M188.12,40.528l-.659,1.244-1.252-1.565.955-.988-1.425-1.449.461-1.194,1.285,1.573-.173-1.878,1.581.906-.165,1.647,1.285-.082.478,1.729-1.408-.181.939,2.092-1.227.132Z" transform="translate(-32.777 -6.395)" fill="#fff"/>
        <path id="Caminho_99" data-name="Caminho 99" d="M218.17,79.326l-.659,1.244L216.259,79l.955-.98-1.425-1.449.461-1.2,1.285,1.581-.173-1.886,1.581.914-.165,1.647,1.285-.074.478,1.729-1.408-.148.947,2.084-1.227.132Z" transform="translate(-38.079 -13.24)" fill="#fff"/>
        <path id="Caminho_100" data-name="Caminho 100" d="M210.658,74.986,210,76.238l-1.252-1.573.947-.98-1.425-1.458.461-1.194,1.293,1.565-.173-1.878,1.573.906-.165,1.647,1.285-.082.478,1.729-1.4-.181.939,2.092-1.227.132Z" transform="translate(-36.752 -12.474)" fill="#fff"/>
        <path id="Caminho_101" data-name="Caminho 101" d="M203.148,70.659l-.659,1.244-1.252-1.573.947-.964-1.425-1.449.469-1.2,1.285,1.573-.173-1.878,1.573.906-.165,1.647,1.285-.074.478,1.729-1.4-.181.964,2.1-1.235.132Z" transform="translate(-35.427 -11.713)" fill="#fff"/>
        <path id="Caminho_102" data-name="Caminho 102" d="M195.642,66.316l-.659,1.244-1.252-1.573.964-.98-1.425-1.449.469-1.2,1.285,1.581-.173-1.886,1.573.914-.165,1.647,1.285-.074.478,1.729-1.425-.14.947,2.084-1.235.132Z" transform="translate(-34.105 -10.944)" fill="#fff"/>
        <path id="Caminho_103" data-name="Caminho 103" d="M188.12,61.976l-.659,1.244-1.252-1.573.955-.98-1.425-1.449.461-1.2,1.285,1.581-.173-1.886,1.581.914-.165,1.647,1.285-.082.478,1.729-1.408-.181.939,2.092-1.227.132Z" transform="translate(-32.777 -10.178)" fill="#fff"/>
        <path id="Caminho_104" data-name="Caminho 104" d="M182.362,280.761l-8.161,4.719-8.161-4.719,8.161-4.711Z" transform="translate(-29.3 -48.708)" fill="#4846a5" opacity="0.3"/>
        <path id="Caminho_105" data-name="Caminho 105" d="M215.392,236.271l-8.161,4.711-8.161-4.711,8.161-4.711Z" transform="translate(-35.129 -40.857)" fill="#4846a5" opacity="0.1"/>
        <path id="Caminho_106" data-name="Caminho 106" d="M171.352,84.371l-8.161,4.711-8.161-4.711,8.161-4.711Z" transform="translate(-27.357 -14.052)" fill="#4846a5" opacity="0.1"/>
        <path id="Caminho_107" data-name="Caminho 107" d="M226.4,255.341l-8.161,4.711-8.169-4.711,8.169-4.711Z" transform="translate(-37.07 -44.222)" fill="#4846a5" opacity="0.3"/>
        <path id="Caminho_108" data-name="Caminho 108" d="M347.492,223.561l-8.161,4.711-8.161-4.711,8.161-4.711Z" transform="translate(-58.44 -38.614)" fill="#4846a5" opacity="0.3"/>
        <path id="Caminho_109" data-name="Caminho 109" d="M114.121,134.081l-8.169,4.711-8.161-4.711,8.161-4.711Z" transform="translate(-17.257 -22.824)" fill="#4846a5" opacity="0.3"/>
        <path id="Caminho_110" data-name="Caminho 110" d="M354.132,133.929l-8.161,4.711-8.161-4.711,8.161-4.719Z" transform="translate(-59.612 -22.795)" fill="#4846a5" opacity="0.3"/>
        <path id="Caminho_111" data-name="Caminho 111" d="M49.162,144.119,41,148.829l-8.161-4.711L41,139.4Z" transform="translate(-5.795 -24.594)" fill="#4846a5" opacity="0.1"/>
        <path id="Caminho_112" data-name="Caminho 112" d="M80.561,114.092a1.449,1.449,0,0,1-.741-.2L45.429,94.039a1.491,1.491,0,0,1-.749-1.293,1.515,1.515,0,0,1,.749-1.293L79.812,71.6a1.524,1.524,0,0,1,1.5,0l34.383,19.855a1.491,1.491,0,0,1,0,2.586L81.311,113.895A1.5,1.5,0,0,1,80.561,114.092Zm.074-1.647ZM46.467,92.68l34.094,19.682L114.656,92.68,80.561,73Z" transform="translate(-7.884 -12.594)" fill="url(#linear-gradient-26)"/>
        <path id="Caminho_113" data-name="Caminho 113" d="M112.593,87.241V80.99l-30.981,17.1L50.63,80.99v6.251l30.981,17.887Z" transform="translate(-8.934 -14.286)" fill="url(#linear-gradient-27)"/>
        <path id="Caminho_114" data-name="Caminho 114" d="M81.611,95.044,50.63,77.157,81.611,59.27l30.981,17.887Z" transform="translate(-8.934 -10.454)" fill="url(#linear-gradient-28)"/>
        <path id="Caminho_115" data-name="Caminho 115" d="M81.611,98.312,51.075,80.68l-.445.255L81.611,98.822l30.981-17.887-.445-.255Z" transform="translate(-8.934 -14.232)" fill="#fff" opacity="0.5"/>
        <path id="Caminho_116" data-name="Caminho 116" d="M84.147,89.682,65,78.622,84.147,67.57,103.3,78.622Z" transform="translate(-11.47 -11.918)" fill="#0f054c"/>
        <path id="Caminho_117" data-name="Caminho 117" d="M84.145,89.682,64.99,78.622,84.145,67.57,103.3,78.622Z" transform="translate(-11.468 -11.918)" opacity="0.5" fill="url(#linear-gradient-29)"/>
        <path id="Caminho_118" data-name="Caminho 118" d="M88.25,48.78l19.155,11.06V75.306L88.25,64.254Z" transform="translate(-15.573 -8.602)" opacity="0.5" fill="url(#linear-gradient-30)"/>
        <path id="Caminho_119" data-name="Caminho 119" d="M84.145,64.254,64.99,75.306V59.84L84.145,48.78Z" transform="translate(-11.468 -8.602)" opacity="0.5" fill="url(#linear-gradient-30)"/>
        <path id="Caminho_120" data-name="Caminho 120" d="M84.145,70.9,64.99,59.84,84.145,48.78,103.3,59.84Z" transform="translate(-11.468 -8.602)" opacity="0.5" fill="url(#linear-gradient-26)"/>
        <path id="Caminho_121" data-name="Caminho 121" d="M88.25,73.27V88.736l19.155-11.06V62.21Z" transform="translate(-15.573 -10.972)" opacity="0.5" fill="url(#linear-gradient-29)"/>
        <path id="Caminho_122" data-name="Caminho 122" d="M64.99,62.21V77.676l19.155,11.06V73.27Z" transform="translate(-11.468 -10.972)" opacity="0.5" fill="url(#linear-gradient-29)"/>
      </g>
    </g>
  </g>
</svg>
