<?xml version="1.0" encoding="UTF-8"?>
<svg xmlns="http://www.w3.org/2000/svg" xmlns:xlink="http://www.w3.org/1999/xlink" width="50pt" height="50pt" viewBox="0 0 50 50" version="1.1">
<g id="surface1">
<path style=" stroke:none;fill-rule:nonzero;fill:rgb(0%,0%,0%);fill-opacity:1;" d="M 48.953125 13.71875 C 48.953125 11.269531 46.960938 9.289062 44.523438 9.289062 C 42.492188 9.289062 40.78125 10.664062 40.253906 12.53125 L 29.003906 12.53125 C 28.613281 10.703125 26.992188 9.328125 25.058594 9.328125 C 23.105469 9.328125 21.496094 10.683594 21.113281 12.53125 L 9.746094 12.53125 C 9.304688 10.929688 7.976562 9.667969 6.339844 9.367188 C 4.738281 9.0625 3.097656 9.648438 2.0625 10.890625 C 1.21875 11.914062 0.878906 13.25 1.125 14.570312 C 1.453125 16.328125 2.859375 17.734375 4.617188 18.066406 C 4.902344 18.125 5.195312 18.144531 5.476562 18.144531 C 6.804688 18.144531 8.046875 17.558594 8.898438 16.53125 C 9.296875 16.046875 9.578125 15.488281 9.746094 14.902344 L 21.007812 14.902344 L 21.007812 19.003906 L 20.90625 32.910156 L 19.5 31.835938 C 17.6875 30.253906 13.40625 28.308594 9.980469 32.070312 C 9.597656 32.492188 9.5625 33.105469 9.890625 33.5625 C 9.988281 33.703125 12.285156 36.914062 15.945312 40.390625 C 16.425781 40.851562 17.1875 40.820312 17.636719 40.34375 C 18.09375 39.863281 18.066406 39.101562 17.585938 38.652344 C 15.1875 36.375 13.367188 34.179688 12.46875 33.015625 C 14.960938 31.191406 17.625 33.378906 17.9375 33.652344 C 17.957031 33.671875 17.976562 33.679688 18 33.703125 L 21.359375 36.289062 C 21.71875 36.5625 22.207031 36.621094 22.609375 36.414062 C 23.015625 36.21875 23.273438 35.800781 23.28125 35.351562 L 23.390625 19.023438 L 23.390625 13.339844 C 23.390625 13.332031 23.390625 13.320312 23.390625 13.300781 C 23.417969 12.402344 24.140625 11.710938 25.03125 11.710938 C 25.9375 11.710938 26.671875 12.453125 26.671875 13.351562 C 26.671875 13.398438 26.671875 13.449219 26.679688 13.496094 L 27.960938 24.101562 C 28.019531 24.628906 28.429688 25.050781 28.945312 25.136719 C 29.023438 25.148438 36.847656 26.484375 42.441406 30.128906 C 42.648438 31.484375 43.117188 35.507812 42.1875 39.21875 C 42.023438 39.863281 42.414062 40.507812 43.054688 40.675781 C 43.15625 40.703125 43.25 40.714844 43.351562 40.714844 C 43.886719 40.714844 44.375 40.351562 44.511719 39.804688 C 45.78125 34.746094 44.765625 29.414062 44.71875 29.191406 C 44.65625 28.886719 44.484375 28.613281 44.21875 28.4375 C 39.25 25.019531 32.625 23.4375 30.253906 22.949219 L 29.289062 14.910156 L 40.253906 14.910156 C 40.78125 16.777344 42.492188 18.152344 44.523438 18.152344 C 46.960938 18.15625 48.953125 16.164062 48.953125 13.71875 Z M 7.0625 15.019531 C 6.582031 15.597656 5.828125 15.867188 5.078125 15.722656 C 4.289062 15.578125 3.632812 14.921875 3.488281 14.128906 C 3.367188 13.503906 3.515625 12.890625 3.914062 12.414062 C 4.304688 11.945312 4.882812 11.671875 5.488281 11.671875 C 5.625 11.671875 5.761719 11.679688 5.898438 11.710938 C 6.6875 11.855469 7.34375 12.507812 7.492188 13.300781 C 7.609375 13.933594 7.453125 14.539062 7.0625 15.019531 Z M 44.523438 15.761719 C 43.4375 15.761719 42.558594 14.914062 42.492188 13.859375 C 42.5 13.808594 42.5 13.769531 42.5 13.71875 C 42.5 13.671875 42.492188 13.632812 42.492188 13.585938 C 42.558594 12.519531 43.4375 11.679688 44.523438 11.679688 C 45.644531 11.679688 46.5625 12.597656 46.5625 13.71875 C 46.5625 14.84375 45.644531 15.761719 44.523438 15.761719 Z M 44.523438 15.761719 "/>
</g>
</svg>
