<?xml version="1.0" encoding="UTF-8"?>
<svg xmlns="http://www.w3.org/2000/svg" xmlns:xlink="http://www.w3.org/1999/xlink" width="50pt" height="50pt" viewBox="0 0 50 50" version="1.1">
<g id="surface1">
<path style=" stroke:none;fill-rule:nonzero;fill:rgb(0%,0%,0%);fill-opacity:1;" d="M 9.601562 39.394531 C 8.9375 39.394531 8.398438 39.929688 8.398438 40.59375 C 8.398438 41.257812 8.9375 41.796875 9.601562 41.796875 L 19.746094 41.796875 C 20.125 42.636719 20.96875 43.222656 21.945312 43.222656 L 28.054688 43.222656 C 29.03125 43.222656 29.875 42.636719 30.253906 41.796875 L 40.402344 41.796875 C 41.066406 41.796875 41.601562 41.257812 41.601562 40.59375 C 41.601562 39.929688 41.066406 39.394531 40.402344 39.394531 L 29.269531 39.394531 C 28.605469 39.394531 28.066406 39.929688 28.066406 40.59375 L 28.054688 40.820312 L 21.933594 40.8125 L 21.933594 40.59375 C 21.933594 39.929688 21.398438 39.394531 20.734375 39.394531 Z M 9.601562 39.394531 "/>
<path style=" stroke:none;fill-rule:nonzero;fill:rgb(0%,0%,0%);fill-opacity:1;" d="M 17.570312 14.433594 L 7.664062 14.433594 C 5.9375 14.433594 4.523438 15.839844 4.523438 17.578125 L 4.523438 39.394531 L 2.257812 39.394531 C 1.59375 39.394531 1.054688 39.929688 1.054688 40.59375 L 1.054688 42.859375 C 1.054688 45.398438 3.125 47.46875 5.664062 47.46875 L 44.316406 47.46875 C 46.855469 47.46875 48.925781 45.398438 48.925781 42.859375 L 48.925781 40.59375 C 48.925781 39.929688 48.390625 39.394531 47.726562 39.394531 L 45.449219 39.394531 L 45.449219 32.117188 C 45.449219 31.453125 44.914062 30.917969 44.25 30.917969 C 43.582031 30.917969 43.046875 31.453125 43.046875 32.117188 L 43.046875 40.585938 C 43.046875 41.25 43.59375 41.789062 44.25 41.789062 L 46.511719 41.789062 L 46.511719 42.859375 C 46.511719 44.082031 45.515625 45.078125 44.296875 45.078125 L 5.671875 45.078125 C 4.453125 45.078125 3.457031 44.082031 3.457031 42.859375 L 3.457031 41.789062 L 5.722656 41.789062 C 6.386719 41.789062 6.914062 41.25 6.914062 40.585938 L 6.914062 17.578125 C 6.914062 17.167969 7.246094 16.828125 7.667969 16.828125 L 17.570312 16.828125 C 18.234375 16.828125 18.769531 16.289062 18.769531 15.625 C 18.757812 14.972656 18.222656 14.433594 17.570312 14.433594 Z M 17.570312 14.433594 "/>
<path style=" stroke:none;fill-rule:nonzero;fill:rgb(0%,0%,0%);fill-opacity:1;" d="M 24.921875 13.300781 L 27.449219 13.300781 C 28.113281 13.300781 28.652344 12.761719 28.652344 12.101562 C 28.652344 11.4375 28.113281 10.898438 27.449219 10.898438 L 24.921875 10.898438 C 22.625 10.898438 20.75 12.761719 20.75 15.070312 L 20.75 15.175781 C 20.75 15.234375 20.761719 15.304688 20.769531 15.363281 L 22.253906 24.695312 C 22.558594 27.21875 24.375 28.722656 27.097656 28.722656 L 38.191406 28.722656 C 40.488281 28.722656 42.363281 26.855469 42.363281 24.550781 L 42.382812 14.132812 L 45.4375 14.152344 L 45.417969 25.195312 C 44.753906 25.195312 44.21875 25.734375 44.21875 26.398438 C 44.21875 27.0625 44.753906 27.597656 45.417969 27.597656 C 46.746094 27.597656 47.832031 26.515625 47.832031 25.1875 L 47.832031 14.171875 C 47.832031 12.84375 46.746094 11.757812 45.417969 11.757812 L 42.382812 11.757812 C 41.609375 11.757812 40.9375 12.128906 40.5 12.683594 C 39.679688 12.390625 36.796875 11.191406 36.796875 8.445312 L 36.796875 3.914062 C 36.796875 3.398438 36.453125 2.929688 35.957031 2.773438 C 35.703125 2.695312 33.429688 2.03125 31.679688 3.320312 C 30.546875 4.148438 29.96875 5.527344 29.96875 7.421875 L 29.96875 12.109375 C 29.96875 12.773438 30.507812 13.3125 31.171875 13.3125 C 31.835938 13.3125 32.375 12.773438 32.375 12.109375 L 32.375 7.421875 C 32.375 6.339844 32.617188 5.617188 33.09375 5.253906 C 33.457031 4.980469 33.964844 4.914062 34.402344 4.933594 L 34.402344 8.449219 C 34.402344 13.105469 39.179688 14.785156 39.96875 15.03125 L 39.96875 24.570312 C 39.96875 25.546875 39.179688 26.347656 38.195312 26.347656 L 27.101562 26.347656 C 24.863281 26.347656 24.695312 24.953125 24.617188 24.382812 L 23.144531 15.085938 L 23.144531 15.070312 C 23.144531 14.09375 23.945312 13.300781 24.921875 13.300781 Z M 24.921875 13.300781 "/>
</g>
</svg>
