<?xml version="1.0" encoding="UTF-8"?>
<svg xmlns="http://www.w3.org/2000/svg" xmlns:xlink="http://www.w3.org/1999/xlink" width="50pt" height="50pt" viewBox="0 0 50 50" version="1.1">
<g id="surface1">
<path style=" stroke:none;fill-rule:nonzero;fill:rgb(0%,0%,0%);fill-opacity:1;" d="M 38.808594 25.332031 C 33.261719 25.332031 28.738281 29.84375 28.738281 35.398438 C 28.738281 40.957031 33.25 45.46875 38.808594 45.46875 C 44.367188 45.46875 48.875 40.957031 48.875 35.398438 C 48.875 29.84375 44.355469 25.332031 38.808594 25.332031 Z M 38.808594 43.066406 C 34.578125 43.066406 31.132812 39.617188 31.132812 35.390625 C 31.132812 31.160156 34.578125 27.714844 38.808594 27.714844 C 43.039062 27.714844 46.484375 31.160156 46.484375 35.390625 C 46.484375 39.617188 43.039062 43.066406 38.808594 43.066406 Z M 38.808594 43.066406 "/>
<path style=" stroke:none;fill-rule:nonzero;fill:rgb(0%,0%,0%);fill-opacity:1;" d="M 40.761719 35.917969 L 40 36.609375 L 40 31.613281 C 40 30.949219 39.460938 30.410156 38.796875 30.410156 C 38.132812 30.410156 37.597656 30.949219 37.597656 31.613281 L 37.597656 36.601562 L 36.835938 35.910156 C 36.347656 35.460938 35.59375 35.5 35.144531 35.988281 C 34.695312 36.476562 34.734375 37.226562 35.222656 37.675781 L 37.988281 40.195312 C 38.210938 40.402344 38.503906 40.507812 38.796875 40.507812 C 39.089844 40.507812 39.375 40.402344 39.609375 40.195312 L 42.375 37.675781 C 42.859375 37.226562 42.898438 36.476562 42.453125 35.988281 C 42.011719 35.507812 41.25 35.476562 40.761719 35.917969 Z M 40.761719 35.917969 "/>
<path style=" stroke:none;fill-rule:nonzero;fill:rgb(0%,0%,0%);fill-opacity:1;" d="M 31.765625 10.070312 L 20.605469 10.070312 C 19.941406 10.070312 19.40625 10.605469 19.40625 11.269531 C 19.40625 11.933594 19.941406 12.46875 20.605469 12.46875 L 31.777344 12.46875 C 32.441406 12.46875 32.976562 11.933594 32.976562 11.269531 C 32.976562 10.605469 32.429688 10.070312 31.765625 10.070312 Z M 31.765625 10.070312 "/>
<path style=" stroke:none;fill-rule:nonzero;fill:rgb(0%,0%,0%);fill-opacity:1;" d="M 12.742188 11.269531 C 12.742188 11.96875 12.175781 12.539062 11.476562 12.539062 C 10.773438 12.539062 10.203125 11.96875 10.203125 11.269531 C 10.203125 10.570312 10.773438 10 11.476562 10 C 12.175781 10 12.742188 10.570312 12.742188 11.269531 Z M 12.742188 11.269531 "/>
<path style=" stroke:none;fill-rule:nonzero;fill:rgb(0%,0%,0%);fill-opacity:1;" d="M 32.96875 22.335938 C 32.96875 21.667969 32.429688 21.132812 31.765625 21.132812 L 20.605469 21.132812 C 19.941406 21.132812 19.40625 21.667969 19.40625 22.335938 C 19.40625 23 19.941406 23.535156 20.605469 23.535156 L 31.777344 23.535156 C 32.429688 23.523438 32.96875 22.988281 32.96875 22.335938 Z M 32.96875 22.335938 "/>
<path style=" stroke:none;fill-rule:nonzero;fill:rgb(0%,0%,0%);fill-opacity:1;" d="M 12.742188 22.335938 C 12.742188 23.035156 12.175781 23.601562 11.476562 23.601562 C 10.773438 23.601562 10.203125 23.035156 10.203125 22.335938 C 10.203125 21.632812 10.773438 21.0625 11.476562 21.0625 C 12.175781 21.0625 12.742188 21.632812 12.742188 22.335938 Z M 12.742188 22.335938 "/>
<path style=" stroke:none;fill-rule:nonzero;fill:rgb(0%,0%,0%);fill-opacity:1;" d="M 1.125 33.417969 C 1.125 37.117188 4.132812 40.125 7.832031 40.125 L 25.859375 40.125 C 26.523438 40.125 27.0625 39.589844 27.0625 38.925781 C 27.0625 38.261719 26.523438 37.722656 25.859375 37.722656 L 7.832031 37.722656 C 5.449219 37.722656 3.515625 35.789062 3.515625 33.367188 C 3.515625 30.984375 5.449219 29.050781 7.832031 29.050781 L 27.882812 29.050781 C 28.546875 29.050781 29.082031 28.515625 29.082031 27.851562 C 29.082031 27.1875 28.546875 26.648438 27.882812 26.648438 L 7.832031 26.648438 C 5.449219 26.648438 3.515625 24.714844 3.515625 22.292969 C 3.515625 19.910156 5.449219 17.976562 7.832031 17.976562 L 34.148438 17.976562 C 36.53125 17.976562 38.46875 19.910156 38.46875 22.332031 C 38.46875 22.996094 39.003906 23.503906 39.667969 23.503906 C 40.332031 23.503906 40.867188 22.949219 40.867188 22.285156 C 40.867188 20.007812 39.726562 17.996094 37.988281 16.785156 C 39.726562 15.574219 40.867188 13.574219 40.867188 11.296875 L 40.867188 11.199219 C 40.867188 7.519531 37.871094 4.519531 34.1875 4.519531 L 7.824219 4.519531 C 4.140625 4.519531 1.144531 7.519531 1.144531 11.199219 L 1.144531 11.296875 C 1.144531 13.574219 2.285156 15.585938 4.035156 16.785156 C 2.296875 18.007812 1.144531 20.027344 1.144531 22.332031 C 1.144531 24.617188 2.296875 26.628906 4.035156 27.839844 C 2.273438 29.082031 1.125 31.101562 1.125 33.417969 Z M 7.804688 15.605469 C 5.4375 15.605469 3.515625 13.683594 3.515625 11.320312 L 3.515625 11.21875 C 3.515625 8.859375 5.4375 6.933594 7.804688 6.933594 L 34.171875 6.933594 C 36.53125 6.933594 38.457031 8.859375 38.457031 11.21875 L 38.457031 11.320312 C 38.457031 13.679688 36.53125 15.605469 34.171875 15.605469 Z M 7.804688 15.605469 "/>
<path style=" stroke:none;fill-rule:nonzero;fill:rgb(0%,0%,0%);fill-opacity:1;" d="M 20.605469 32.195312 C 19.941406 32.195312 19.40625 32.734375 19.40625 33.398438 C 19.40625 34.0625 19.941406 34.601562 20.605469 34.601562 L 25.664062 34.601562 C 26.328125 34.601562 26.867188 34.0625 26.867188 33.398438 C 26.867188 32.734375 26.328125 32.195312 25.664062 32.195312 Z M 20.605469 32.195312 "/>
<path style=" stroke:none;fill-rule:nonzero;fill:rgb(0%,0%,0%);fill-opacity:1;" d="M 12.742188 33.398438 C 12.742188 34.097656 12.175781 34.667969 11.476562 34.667969 C 10.773438 34.667969 10.203125 34.097656 10.203125 33.398438 C 10.203125 32.699219 10.773438 32.128906 11.476562 32.128906 C 12.175781 32.128906 12.742188 32.699219 12.742188 33.398438 Z M 12.742188 33.398438 "/>
</g>
</svg>
