<?xml version="1.0" encoding="UTF-8"?>
<svg xmlns="http://www.w3.org/2000/svg" xmlns:xlink="http://www.w3.org/1999/xlink" width="50pt" height="50pt" viewBox="0 0 50 50" version="1.1">
<g id="surface1">
<path style=" stroke:none;fill-rule:nonzero;fill:rgb(0%,0%,0%);fill-opacity:1;" d="M 1.203125 9.328125 L 1.203125 40.683594 C 1.203125 42.664062 2.8125 44.289062 4.804688 44.289062 L 45.203125 44.289062 C 47.1875 44.289062 48.796875 42.675781 48.796875 40.683594 L 48.796875 9.328125 C 48.796875 7.34375 47.1875 5.722656 45.203125 5.722656 L 4.804688 5.722656 C 2.820312 5.722656 1.203125 7.332031 1.203125 9.328125 Z M 45.195312 41.882812 L 4.804688 41.882812 C 4.140625 41.882812 3.59375 41.347656 3.59375 40.671875 L 3.59375 17.15625 L 46.398438 17.15625 L 46.398438 40.683594 C 46.40625 41.335938 45.859375 41.882812 45.195312 41.882812 Z M 46.40625 9.328125 L 46.40625 14.765625 L 3.59375 14.765625 L 3.59375 9.328125 C 3.59375 8.664062 4.132812 8.117188 4.804688 8.117188 L 45.203125 8.117188 C 45.859375 8.117188 46.40625 8.664062 46.40625 9.328125 Z M 46.40625 9.328125 "/>
<path style=" stroke:none;fill-rule:nonzero;fill:rgb(0%,0%,0%);fill-opacity:1;" d="M 6.925781 12.636719 C 7.238281 12.636719 7.550781 12.507812 7.773438 12.285156 C 8 12.0625 8.125 11.757812 8.125 11.4375 C 8.125 11.125 8 10.8125 7.773438 10.585938 C 7.324219 10.136719 6.523438 10.136719 6.085938 10.585938 C 5.859375 10.8125 5.734375 11.113281 5.734375 11.4375 C 5.734375 11.75 5.859375 12.0625 6.085938 12.285156 C 6.296875 12.507812 6.601562 12.636719 6.925781 12.636719 Z M 6.925781 12.636719 "/>
<path style=" stroke:none;fill-rule:nonzero;fill:rgb(0%,0%,0%);fill-opacity:1;" d="M 11.445312 12.636719 C 11.757812 12.636719 12.070312 12.507812 12.285156 12.285156 C 12.507812 12.0625 12.636719 11.757812 12.636719 11.4375 C 12.636719 11.125 12.507812 10.8125 12.285156 10.585938 C 11.835938 10.136719 11.046875 10.136719 10.597656 10.585938 C 10.371094 10.8125 10.246094 11.113281 10.246094 11.4375 C 10.246094 11.75 10.371094 12.0625 10.597656 12.285156 C 10.8125 12.507812 11.125 12.636719 11.445312 12.636719 Z M 11.445312 12.636719 "/>
<path style=" stroke:none;fill-rule:nonzero;fill:rgb(0%,0%,0%);fill-opacity:1;" d="M 15.957031 12.636719 C 16.269531 12.636719 16.582031 12.507812 16.804688 12.285156 C 17.03125 12.0625 17.15625 11.757812 17.15625 11.4375 C 17.15625 11.125 17.03125 10.8125 16.804688 10.585938 C 16.359375 10.136719 15.554688 10.136719 15.117188 10.585938 C 14.890625 10.8125 14.765625 11.113281 14.765625 11.4375 C 14.765625 11.75 14.890625 12.0625 15.117188 12.285156 C 15.332031 12.507812 15.644531 12.636719 15.957031 12.636719 Z M 15.957031 12.636719 "/>
<path style=" stroke:none;fill-rule:nonzero;fill:rgb(0%,0%,0%);fill-opacity:1;" d="M 32.96875 22.6875 C 32.460938 22.257812 31.710938 22.324219 31.28125 22.820312 C 30.851562 23.328125 30.917969 24.082031 31.414062 24.511719 L 37.453125 29.617188 L 31.414062 34.746094 C 30.90625 35.175781 30.847656 35.929688 31.28125 36.4375 C 31.515625 36.71875 31.855469 36.855469 32.1875 36.855469 C 32.460938 36.855469 32.734375 36.757812 32.960938 36.574219 L 40.078125 30.539062 C 40.34375 30.3125 40.5 29.980469 40.5 29.621094 C 40.5 29.269531 40.34375 28.9375 40.078125 28.710938 Z M 32.96875 22.6875 "/>
<path style=" stroke:none;fill-rule:nonzero;fill:rgb(0%,0%,0%);fill-opacity:1;" d="M 12.539062 29.617188 L 18.566406 24.511719 C 19.070312 24.082031 19.132812 23.328125 18.703125 22.820312 C 18.273438 22.3125 17.519531 22.253906 17.011719 22.6875 L 9.902344 28.699219 C 9.640625 28.925781 9.484375 29.257812 9.484375 29.609375 C 9.484375 29.960938 9.640625 30.292969 9.902344 30.515625 L 17.011719 36.554688 C 17.238281 36.75 17.507812 36.835938 17.785156 36.835938 C 18.125 36.835938 18.457031 36.6875 18.691406 36.414062 C 19.121094 35.90625 19.0625 35.15625 18.554688 34.726562 Z M 12.539062 29.617188 "/>
<path style=" stroke:none;fill-rule:nonzero;fill:rgb(0%,0%,0%);fill-opacity:1;" d="M 28.429688 20.984375 C 27.8125 20.742188 27.121094 21.035156 26.875 21.648438 L 20.851562 36.71875 C 20.605469 37.335938 20.898438 38.027344 21.515625 38.273438 C 21.660156 38.328125 21.804688 38.359375 21.953125 38.359375 C 22.429688 38.359375 22.882812 38.078125 23.066406 37.609375 L 29.09375 22.539062 C 29.34375 21.921875 29.042969 21.230469 28.429688 20.984375 Z M 28.429688 20.984375 "/>
</g>
</svg>
