<?xml version="1.0" encoding="UTF-8"?>
<svg xmlns="http://www.w3.org/2000/svg" xmlns:xlink="http://www.w3.org/1999/xlink" width="50pt" height="50pt" viewBox="0 0 50 50" version="1.1">
<g id="surface1">
<path style=" stroke:none;fill-rule:nonzero;fill:rgb(0%,0%,0%);fill-opacity:1;" d="M 31.699219 3.007812 C 31.699219 2.34375 31.164062 1.804688 30.5 1.804688 L 19.511719 1.804688 C 18.847656 1.804688 18.3125 2.34375 18.3125 3.007812 L 18.3125 7.304688 L 2.265625 7.304688 C 1.601562 7.304688 1.074219 7.84375 1.074219 8.507812 L 1.074219 41.6875 C 1.074219 42.351562 1.609375 42.890625 2.265625 42.890625 L 10.382812 42.890625 L 7.34375 45.929688 C 6.875 46.398438 6.875 47.148438 7.34375 47.617188 C 7.578125 47.851562 7.878906 47.96875 8.195312 47.96875 C 8.507812 47.96875 8.808594 47.851562 9.042969 47.617188 L 14.121094 42.539062 C 14.34375 42.3125 14.472656 42.011719 14.472656 41.6875 C 14.472656 41.367188 14.34375 41.066406 14.121094 40.839844 L 9.042969 35.761719 C 8.574219 35.292969 7.820312 35.292969 7.351562 35.761719 C 6.882812 36.230469 6.882812 36.984375 7.351562 37.453125 L 10.390625 40.488281 L 3.46875 40.488281 L 3.46875 9.707031 L 18.3125 9.707031 L 18.3125 14.003906 C 18.3125 14.667969 18.847656 15.207031 19.511719 15.207031 L 30.507812 15.207031 C 31.171875 15.207031 31.710938 14.667969 31.710938 14.003906 L 31.710938 3.007812 Z M 29.308594 12.8125 L 20.703125 12.8125 L 20.703125 4.210938 L 29.308594 4.210938 Z M 29.308594 12.8125 "/>
<path style=" stroke:none;fill-rule:nonzero;fill:rgb(0%,0%,0%);fill-opacity:1;" d="M 30.507812 18.3125 L 19.511719 18.3125 C 18.847656 18.3125 18.3125 18.847656 18.3125 19.511719 L 18.3125 30.507812 C 18.3125 31.171875 18.847656 31.710938 19.511719 31.710938 L 30.507812 31.710938 C 31.171875 31.710938 31.710938 31.171875 31.710938 30.507812 L 31.710938 19.5 C 31.699219 18.835938 31.164062 18.3125 30.507812 18.3125 Z M 29.308594 29.296875 L 20.703125 29.296875 L 20.703125 20.703125 L 29.308594 20.703125 Z M 29.308594 29.296875 "/>
<path style=" stroke:none;fill-rule:nonzero;fill:rgb(0%,0%,0%);fill-opacity:1;" d="M 48.925781 41.492188 L 48.925781 8.3125 C 48.925781 7.648438 48.390625 7.109375 47.726562 7.109375 L 39.617188 7.109375 L 42.65625 4.070312 C 43.125 3.601562 43.125 2.851562 42.65625 2.382812 C 42.1875 1.914062 41.4375 1.914062 40.96875 2.382812 L 35.890625 7.460938 C 35.421875 7.929688 35.421875 8.679688 35.890625 9.148438 L 40.96875 14.226562 C 41.203125 14.460938 41.503906 14.578125 41.816406 14.578125 C 42.128906 14.578125 42.429688 14.460938 42.664062 14.226562 C 43.132812 13.757812 43.132812 13.007812 42.664062 12.539062 L 39.628906 9.5 L 46.53125 9.5 L 46.53125 40.292969 L 31.699219 40.292969 L 31.699219 35.996094 C 31.699219 35.332031 31.164062 34.796875 30.5 34.796875 L 19.511719 34.796875 C 18.847656 34.796875 18.3125 35.332031 18.3125 35.996094 L 18.3125 46.992188 C 18.3125 47.65625 18.847656 48.195312 19.511719 48.195312 L 30.507812 48.195312 C 31.171875 48.195312 31.710938 47.65625 31.710938 46.992188 L 31.710938 42.695312 L 47.734375 42.695312 C 48.390625 42.6875 48.925781 42.148438 48.925781 41.492188 Z M 29.308594 45.789062 L 20.703125 45.789062 L 20.703125 37.1875 L 29.308594 37.1875 Z M 29.308594 45.789062 "/>
</g>
</svg>
