<?xml version="1.0" encoding="UTF-8"?>
<svg xmlns="http://www.w3.org/2000/svg" xmlns:xlink="http://www.w3.org/1999/xlink" width="50pt" height="50pt" viewBox="0 0 50 50" version="1.1">
<g id="surface1">
<path style=" stroke:none;fill-rule:nonzero;fill:rgb(0%,0%,0%);fill-opacity:1;" d="M 40.351562 33.40625 L 29.25 33.40625 C 28.585938 33.40625 28.046875 33.945312 28.046875 34.609375 L 28.035156 34.835938 L 21.933594 34.824219 L 21.933594 34.609375 C 21.933594 33.945312 21.394531 33.40625 20.730469 33.40625 L 9.648438 33.40625 C 8.984375 33.40625 8.445312 33.945312 8.445312 34.609375 C 8.445312 35.273438 8.984375 35.8125 9.648438 35.8125 L 19.757812 35.8125 C 20.136719 36.640625 20.976562 37.226562 21.945312 37.226562 L 28.039062 37.226562 C 29.015625 37.226562 29.855469 36.640625 30.226562 35.8125 L 40.34375 35.8125 C 41.007812 35.8125 41.542969 35.273438 41.542969 34.609375 C 41.554688 33.945312 41.015625 33.40625 40.351562 33.40625 Z M 40.351562 33.40625 "/>
<path style=" stroke:none;fill-rule:nonzero;fill:rgb(0%,0%,0%);fill-opacity:1;" d="M 47.675781 33.40625 L 45.410156 33.40625 L 45.410156 11.660156 C 45.410156 11.621094 45.410156 11.582031 45.398438 11.542969 C 45.234375 9.824219 43.835938 8.527344 42.167969 8.527344 L 7.714844 8.527344 C 5.984375 8.527344 4.578125 9.933594 4.578125 11.660156 L 4.578125 33.40625 L 2.324219 33.40625 C 1.660156 33.40625 1.125 33.945312 1.125 34.609375 L 1.125 36.875 C 1.125 39.414062 3.183594 41.476562 5.722656 41.476562 L 44.257812 41.476562 C 46.796875 41.476562 48.859375 39.414062 48.859375 36.875 L 48.859375 34.609375 C 48.875 33.945312 48.339844 33.40625 47.675781 33.40625 Z M 46.484375 36.875 C 46.484375 38.09375 45.488281 39.082031 44.277344 39.082031 L 5.734375 39.082031 C 4.511719 39.082031 3.515625 38.085938 3.515625 36.875 L 3.515625 35.8125 L 5.773438 35.8125 C 6.4375 35.8125 6.972656 35.273438 6.972656 34.609375 L 6.972656 11.660156 C 6.972656 11.25 7.304688 10.917969 7.714844 10.917969 L 42.167969 10.917969 C 42.585938 10.917969 42.949219 11.269531 43.015625 11.730469 L 43.015625 34.601562 C 43.015625 35.265625 43.5625 35.800781 44.21875 35.800781 L 46.484375 35.800781 Z M 46.484375 36.875 "/>
<path style=" stroke:none;fill-rule:nonzero;fill:rgb(0%,0%,0%);fill-opacity:1;" d="M 19.71875 23.90625 L 23.796875 23.90625 L 23.796875 27.988281 C 23.796875 28.652344 24.335938 29.191406 25 29.191406 C 25.664062 29.191406 26.203125 28.652344 26.203125 27.988281 L 26.203125 23.90625 L 30.285156 23.90625 C 30.949219 23.90625 31.484375 23.367188 31.484375 22.703125 C 31.484375 22.039062 30.949219 21.503906 30.285156 21.503906 L 26.203125 21.503906 L 26.203125 17.421875 C 26.203125 16.757812 25.664062 16.21875 25 16.21875 C 24.335938 16.21875 23.796875 16.757812 23.796875 17.421875 L 23.796875 21.503906 L 19.714844 21.503906 C 19.050781 21.503906 18.515625 22.039062 18.515625 22.703125 C 18.523438 23.367188 19.054688 23.90625 19.71875 23.90625 Z M 19.71875 23.90625 "/>
</g>
</svg>
