<?xml version="1.0" encoding="UTF-8"?>
<svg xmlns="http://www.w3.org/2000/svg" xmlns:xlink="http://www.w3.org/1999/xlink" width="50pt" height="50pt" viewBox="0 0 50 50" version="1.1">
<g id="surface1">
<path style=" stroke:none;fill-rule:nonzero;fill:rgb(0%,0%,0%);fill-opacity:1;" d="M 8.429688 41.367188 C 8.429688 42.03125 8.964844 42.570312 9.628906 42.570312 L 19.757812 42.570312 C 20.136719 43.410156 20.976562 43.984375 21.953125 43.984375 L 28.054688 43.984375 C 29.03125 43.984375 29.875 43.398438 30.242188 42.570312 L 40.382812 42.570312 C 41.046875 42.570312 41.582031 42.03125 41.582031 41.367188 C 41.582031 40.703125 41.046875 40.164062 40.382812 40.164062 L 29.257812 40.164062 C 28.59375 40.164062 28.054688 40.703125 28.054688 41.367188 L 28.046875 41.59375 L 21.933594 41.582031 L 21.933594 41.367188 C 21.933594 40.703125 21.398438 40.164062 20.734375 40.164062 L 9.628906 40.164062 C 8.964844 40.164062 8.429688 40.703125 8.429688 41.367188 Z M 8.429688 41.367188 "/>
<path style=" stroke:none;fill-rule:nonzero;fill:rgb(0%,0%,0%);fill-opacity:1;" d="M 7.695312 15.253906 C 5.964844 15.253906 4.550781 16.660156 4.550781 18.398438 L 4.550781 40.175781 L 2.296875 40.175781 C 1.632812 40.175781 1.09375 40.710938 1.09375 41.375 L 1.09375 43.640625 C 1.09375 46.179688 3.164062 48.25 5.703125 48.25 L 44.296875 48.25 C 46.835938 48.25 48.90625 46.179688 48.90625 43.640625 L 48.90625 41.375 C 48.90625 40.710938 48.367188 40.175781 47.703125 40.175781 L 45.4375 40.175781 L 45.4375 18.398438 C 45.4375 18.359375 45.4375 18.320312 45.429688 18.28125 C 45.265625 16.554688 43.867188 15.253906 42.1875 15.253906 C 41.523438 15.253906 40.984375 15.789062 40.984375 16.453125 C 40.984375 17.117188 41.523438 17.65625 42.1875 17.65625 C 42.609375 17.65625 42.976562 18.007812 43.039062 18.476562 L 43.039062 41.378906 C 43.039062 42.042969 43.585938 42.578125 44.238281 42.578125 L 46.492188 42.578125 L 46.492188 43.640625 C 46.492188 44.863281 45.5 45.859375 44.277344 45.859375 L 5.703125 45.859375 C 4.484375 45.859375 3.488281 44.863281 3.488281 43.640625 L 3.488281 42.578125 L 5.742188 42.578125 C 6.40625 42.578125 6.933594 42.042969 6.933594 41.378906 L 6.933594 18.390625 C 6.933594 17.980469 7.265625 17.636719 7.6875 17.636719 C 8.351562 17.636719 8.886719 17.101562 8.886719 16.4375 C 8.886719 15.789062 8.351562 15.253906 7.695312 15.253906 Z M 7.695312 15.253906 "/>
<path style=" stroke:none;fill-rule:nonzero;fill:rgb(0%,0%,0%);fill-opacity:1;" d="M 12.402344 13.144531 C 11.25 13.144531 10.3125 14.082031 10.3125 15.234375 L 10.3125 17.65625 C 10.3125 18.808594 11.25 19.746094 12.402344 19.746094 L 13.476562 19.746094 C 13.730469 20.625 14.070312 21.464844 14.519531 22.265625 L 13.757812 23.027344 C 12.949219 23.839844 12.949219 25.167969 13.757812 25.976562 L 15.476562 27.695312 C 15.867188 28.085938 16.394531 28.300781 16.953125 28.300781 C 17.507812 28.300781 18.035156 28.085938 18.425781 27.6875 L 19.1875 26.925781 C 19.988281 27.375 20.828125 27.714844 21.710938 27.96875 L 21.710938 29.042969 C 21.710938 30.195312 22.644531 31.132812 23.796875 31.132812 L 26.21875 31.132812 C 27.375 31.132812 28.308594 30.195312 28.308594 29.042969 L 28.308594 27.96875 C 29.1875 27.714844 30.03125 27.375 30.828125 26.925781 L 31.59375 27.6875 C 31.984375 28.078125 32.507812 28.292969 33.066406 28.292969 C 33.625 28.292969 34.152344 28.078125 34.542969 27.675781 L 36.261719 25.957031 C 37.070312 25.148438 37.070312 23.820312 36.261719 23.007812 L 35.5 22.246094 C 35.949219 21.445312 36.289062 20.605469 36.542969 19.726562 L 37.617188 19.726562 C 38.769531 19.726562 39.707031 18.789062 39.707031 17.636719 L 39.707031 15.234375 C 39.707031 14.082031 38.769531 13.144531 37.617188 13.144531 L 36.542969 13.144531 C 36.289062 12.265625 35.945312 11.425781 35.5 10.625 L 36.261719 9.863281 C 37.070312 9.054688 37.070312 7.722656 36.261719 6.914062 L 34.542969 5.195312 C 34.152344 4.804688 33.625 4.578125 33.066406 4.578125 C 32.507812 4.578125 31.984375 4.796875 31.59375 5.195312 L 30.828125 5.957031 C 30.03125 5.507812 29.1875 5.164062 28.308594 4.914062 L 28.308594 3.835938 C 28.308594 2.683594 27.371094 1.746094 26.21875 1.746094 L 23.796875 1.746094 C 22.644531 1.746094 21.710938 2.6875 21.710938 3.835938 L 21.710938 4.914062 C 20.828125 5.164062 19.992188 5.507812 19.1875 5.957031 L 18.425781 5.195312 C 18.035156 4.804688 17.507812 4.589844 16.953125 4.589844 C 16.394531 4.589844 15.867188 4.804688 15.476562 5.203125 L 13.769531 6.925781 C 13.378906 7.316406 13.152344 7.84375 13.152344 8.398438 C 13.152344 8.953125 13.367188 9.484375 13.769531 9.875 L 14.53125 10.632812 C 14.082031 11.4375 13.738281 12.273438 13.484375 13.152344 L 12.402344 13.152344 Z M 15.585938 14.582031 C 15.828125 13.339844 16.320312 12.179688 17.023438 11.125 C 17.34375 10.644531 17.273438 10.019531 16.875 9.609375 L 15.664062 8.398438 L 16.945312 7.121094 L 18.15625 8.332031 C 18.554688 8.730469 19.1875 8.796875 19.667969 8.476562 C 20.722656 7.773438 21.882812 7.285156 23.125 7.042969 C 23.679688 6.933594 24.09375 6.4375 24.09375 5.871094 L 24.09375 4.148438 L 25.90625 4.148438 L 25.90625 5.859375 C 25.90625 6.425781 26.308594 6.925781 26.875 7.03125 C 28.113281 7.273438 29.285156 7.765625 30.332031 8.46875 C 30.808594 8.789062 31.433594 8.71875 31.84375 8.320312 L 33.054688 7.109375 L 34.335938 8.398438 L 33.125 9.609375 C 32.726562 10.007812 32.65625 10.644531 32.980469 11.125 C 33.679688 12.179688 34.171875 13.339844 34.414062 14.582031 C 34.523438 15.136719 35.019531 15.546875 35.585938 15.546875 L 37.296875 15.546875 L 37.296875 17.363281 L 35.585938 17.363281 C 35.019531 17.363281 34.523438 17.765625 34.414062 18.328125 C 34.171875 19.570312 33.679688 20.734375 32.980469 21.789062 C 32.65625 22.265625 32.726562 22.890625 33.125 23.300781 L 34.335938 24.511719 L 33.054688 25.78125 L 31.847656 24.570312 C 31.445312 24.171875 30.8125 24.101562 30.332031 24.421875 C 29.277344 25.125 28.117188 25.617188 26.875 25.859375 C 26.320312 25.96875 25.910156 26.464844 25.910156 27.03125 L 25.910156 28.742188 L 24.09375 28.742188 L 24.09375 27.03125 C 24.09375 26.457031 23.691406 25.96875 23.125 25.859375 C 21.886719 25.617188 20.722656 25.125 19.667969 24.425781 C 19.191406 24.101562 18.566406 24.171875 18.15625 24.570312 L 16.945312 25.78125 L 15.664062 24.5 L 16.875 23.289062 C 17.273438 22.890625 17.34375 22.257812 17.023438 21.777344 C 16.320312 20.722656 15.832031 19.5625 15.585938 18.320312 C 15.480469 17.765625 14.980469 17.351562 14.414062 17.351562 L 12.707031 17.351562 L 12.707031 15.539062 L 14.414062 15.539062 C 14.992188 15.539062 15.476562 15.136719 15.585938 14.582031 Z M 15.585938 14.582031 "/>
<path style=" stroke:none;fill-rule:nonzero;fill:rgb(0%,0%,0%);fill-opacity:1;" d="M 25 22.8125 C 28.503906 22.8125 31.367188 19.960938 31.367188 16.445312 C 31.367188 12.929688 28.515625 10.078125 25 10.078125 C 21.484375 10.078125 18.632812 12.929688 18.632812 16.445312 C 18.632812 19.960938 21.492188 22.8125 25 22.8125 Z M 25 12.46875 C 27.1875 12.46875 28.976562 14.257812 28.976562 16.445312 C 28.976562 18.632812 27.195312 20.421875 25 20.421875 C 22.804688 20.421875 21.023438 18.632812 21.023438 16.445312 C 21.023438 14.257812 22.8125 12.46875 25 12.46875 Z M 25 12.46875 "/>
</g>
</svg>
