<?xml version="1.0" encoding="UTF-8"?>
<svg xmlns="http://www.w3.org/2000/svg" xmlns:xlink="http://www.w3.org/1999/xlink" width="50pt" height="50pt" viewBox="0 0 50 50" version="1.1">
<g id="surface1">
<path style=" stroke:none;fill-rule:nonzero;fill:rgb(0%,0%,0%);fill-opacity:1;" d="M 1.25 4.707031 L 1.25 35.996094 C 1.25 36.660156 1.789062 37.195312 2.453125 37.195312 C 3.117188 37.195312 3.652344 36.660156 3.652344 35.996094 L 3.652344 12.53125 L 46.359375 12.53125 L 46.359375 35.996094 C 46.359375 36.660156 46.894531 37.195312 47.558594 37.195312 C 48.222656 37.195312 48.761719 36.660156 48.761719 35.996094 L 48.761719 4.707031 C 48.761719 2.726562 47.148438 1.113281 45.167969 1.113281 L 4.84375 1.113281 C 2.859375 1.113281 1.25 2.726562 1.25 4.707031 Z M 46.359375 4.707031 L 46.359375 10.136719 L 3.640625 10.136719 L 3.640625 4.707031 C 3.640625 4.042969 4.179688 3.507812 4.84375 3.507812 L 45.144531 3.507812 C 45.8125 3.507812 46.359375 4.042969 46.359375 4.707031 Z M 46.359375 4.707031 "/>
<path style=" stroke:none;fill-rule:nonzero;fill:rgb(0%,0%,0%);fill-opacity:1;" d="M 6.960938 8.015625 C 7.273438 8.015625 7.585938 7.890625 7.8125 7.664062 C 8.039062 7.441406 8.164062 7.136719 8.164062 6.816406 C 8.164062 6.492188 8.039062 6.191406 7.8125 5.964844 C 7.363281 5.515625 6.5625 5.515625 6.125 5.964844 C 5.898438 6.191406 5.773438 6.492188 5.773438 6.816406 C 5.773438 7.136719 5.898438 7.441406 6.125 7.664062 C 6.339844 7.890625 6.640625 8.015625 6.960938 8.015625 Z M 6.960938 8.015625 "/>
<path style=" stroke:none;fill-rule:nonzero;fill:rgb(0%,0%,0%);fill-opacity:1;" d="M 11.464844 8.015625 C 11.777344 8.015625 12.089844 7.890625 12.3125 7.664062 C 12.539062 7.441406 12.667969 7.136719 12.667969 6.816406 C 12.667969 6.492188 12.539062 6.191406 12.316406 5.964844 C 11.867188 5.515625 11.066406 5.515625 10.625 5.964844 C 10.402344 6.191406 10.285156 6.492188 10.285156 6.816406 C 10.285156 7.136719 10.410156 7.441406 10.625 7.664062 C 10.851562 7.890625 11.152344 8.015625 11.464844 8.015625 Z M 11.464844 8.015625 "/>
<path style=" stroke:none;fill-rule:nonzero;fill:rgb(0%,0%,0%);fill-opacity:1;" d="M 15.976562 8.015625 C 16.289062 8.015625 16.601562 7.890625 16.828125 7.664062 C 17.050781 7.441406 17.175781 7.136719 17.175781 6.816406 C 17.175781 6.492188 17.050781 6.191406 16.828125 5.964844 C 16.375 5.515625 15.574219 5.515625 15.136719 5.964844 C 14.910156 6.191406 14.785156 6.492188 14.785156 6.816406 C 14.785156 7.136719 14.910156 7.441406 15.136719 7.664062 C 15.351562 7.890625 15.664062 8.015625 15.976562 8.015625 Z M 15.976562 8.015625 "/>
<path style=" stroke:none;fill-rule:nonzero;fill:rgb(0%,0%,0%);fill-opacity:1;" d="M 39.601562 48.847656 C 39.695312 48.875 39.796875 48.886719 39.890625 48.886719 C 40.429688 48.886719 40.917969 48.523438 41.054688 47.976562 C 42.402344 42.636719 41.320312 37 41.269531 36.757812 C 41.210938 36.453125 41.035156 36.179688 40.769531 36.007812 C 35.460938 32.351562 28.398438 30.683594 25.925781 30.183594 L 24.6875 19.882812 C 24.648438 17.597656 22.773438 15.75 20.476562 15.75 C 18.210938 15.75 16.386719 17.5 16.277344 19.746094 C 16.277344 19.785156 16.269531 19.824219 16.269531 19.871094 L 16.269531 25.964844 L 16.171875 40.847656 L 14.550781 39.597656 C 12.644531 37.9375 8.164062 35.886719 4.558594 39.84375 C 4.179688 40.261719 4.140625 40.878906 4.472656 41.335938 C 4.570312 41.484375 7 44.882812 10.878906 48.554688 C 11.355469 49.003906 12.117188 48.984375 12.566406 48.503906 C 13.027344 48.027344 13 47.265625 12.519531 46.816406 C 9.929688 44.363281 7.988281 41.992188 7.050781 40.78125 C 9.746094 38.730469 12.65625 41.113281 13 41.414062 C 13.015625 41.433594 13.039062 41.445312 13.054688 41.464844 L 16.609375 44.207031 C 16.972656 44.480469 17.460938 44.539062 17.859375 44.335938 C 18.273438 44.140625 18.523438 43.71875 18.535156 43.273438 L 18.652344 25.964844 L 18.652344 19.941406 C 18.652344 19.929688 18.652344 19.910156 18.652344 19.902344 C 18.679688 18.914062 19.472656 18.144531 20.46875 18.144531 C 21.464844 18.144531 22.285156 18.953125 22.285156 19.960938 C 22.285156 20.007812 22.285156 20.058594 22.296875 20.105469 L 23.664062 31.347656 C 23.71875 31.875 24.132812 32.296875 24.65625 32.382812 C 24.746094 32.394531 33.054688 33.808594 39.015625 37.703125 C 39.226562 39.121094 39.746094 43.429688 38.742188 47.402344 C 38.574219 48.039062 38.964844 48.691406 39.601562 48.847656 Z M 39.601562 48.847656 "/>
</g>
</svg>
